<svg xmlns="http://www.w3.org/2000/svg" xmlns:xlink="http://www.w3.org/1999/xlink" viewBox="0 0 148.81 226.55"><defs><style>.cls-1,.cls-23,.cls-5{fill:#17b978;}.cls-1,.cls-15,.cls-2,.cls-22,.cls-3,.cls-4,.cls-8{stroke:#000;stroke-miterlimit:10;stroke-width:2px;}.cls-2,.cls-9{fill:#071a52;}.cls-11,.cls-3{fill:#086972;}.cls-18,.cls-4{fill:#fff;}.cls-6{clip-path:url(#clip-path);}.cls-7{opacity:0.4;}.cls-8{fill:#086971;}.cls-10{clip-path:url(#clip-path-2);}.cls-12{clip-path:url(#clip-path-3);}.cls-13{fill:#39878e;}.cls-14{fill:#6ba5aa;}.cls-15{fill:none;}.cls-16{opacity:0.5;}.cls-17{fill:#053439;}.cls-19{clip-path:url(#clip-path-4);}.cls-20{fill-opacity:0.25;}.cls-21{clip-path:url(#clip-path-5);}.cls-22{fill:#081952;}.cls-23{font-size:12px;font-family:MyriadPro-Regular, Myriad Pro;}</style><clipPath id="clip-path" transform="translate(32.68 28.91)"><path class="cls-1" d="M76,10a38.13,38.13,0,0,1,8.63,27.33c-1.4,19.37-4.24,60.36-4.5,78.58-.35,24.3,7.4,75.37-33.11,75.37S8.19,133.23,8.67,116C9.21,96.16-2.6,72.89,5.5,43c9-33.23,33.77-43.53,56-41.87C67.46,1.62,72.3,5.58,76,10Z"/></clipPath><clipPath id="clip-path-2" transform="translate(32.68 28.91)"><ellipse class="cls-2" cx="43.72" cy="146.9" rx="38.67" ry="49.74"/></clipPath><clipPath id="clip-path-3" transform="translate(32.68 28.91)"><path class="cls-3" d="M72.47,25.55a33.91,33.91,0,0,1,7.68,24.31c-1.25,17.24-3.77,53.69-4,69.9-.31,21.62,6.58,67.05-29.45,67.05s-34.57-51.67-34.15-67c.48-17.6-10-38.3-2.82-64.86,8-29.56,30-38.72,49.82-37.24C64.84,18.05,69.14,21.58,72.47,25.55Z"/></clipPath><clipPath id="clip-path-4" transform="translate(32.68 28.91)"><circle class="cls-4" cx="65.34" cy="56.46" r="13.45"/></clipPath><clipPath id="clip-path-5" transform="translate(32.68 28.91)"><circle class="cls-4" cx="44.1" cy="56.46" r="13.45"/></clipPath></defs><g id="Layer_2" data-name="Layer 2"><g id="carwash"><path class="cls-5" d="M76,10a38.13,38.13,0,0,1,8.63,27.33c-1.4,19.37-4.24,60.36-4.5,78.58-.35,24.3,7.4,75.37-33.11,75.37S8.19,133.23,8.67,116C9.21,96.16-2.6,72.89,5.5,43c9-33.23,33.77-43.53,56-41.87C67.46,1.62,72.3,5.58,76,10Z" transform="translate(32.68 28.91)"/><g class="cls-6"><path class="cls-7" d="M72.58,165.37l-20.72-8.48s-29.48-50.5-29.14-92.71S55.93-28.91,55.93-28.91l-48,42.18L-32.68,167.49l20.14,11.3,59-9.54Z" transform="translate(32.68 28.91)"/><circle class="cls-8" cx="30.51" cy="109.23" r="14.94"/><circle class="cls-8" cx="30.83" cy="74.05" r="14.94"/><circle class="cls-8" cx="44.84" cy="40.79" r="14.94"/><circle class="cls-8" cx="76.4" cy="23.35" r="14.94"/><circle class="cls-8" cx="112.19" cy="28.73" r="14.94"/><ellipse class="cls-9" cx="76.4" cy="175.81" rx="38.67" ry="49.74"/><g class="cls-10"><path class="cls-11" d="M72.47,25.55a33.91,33.91,0,0,1,7.68,24.31c-1.25,17.24-3.77,53.69-4,69.9-.31,21.62,6.58,67.05-29.45,67.05s-34.57-51.67-34.15-67c.48-17.6-10-38.3-2.82-64.86,8-29.56,30-38.72,49.82-37.24C64.84,18.05,69.14,21.58,72.47,25.55Z" transform="translate(32.68 28.91)"/><g class="cls-12"><path class="cls-13" d="M46.69,176.81c-5.65,0-9.9-1.66-13.38-5.23-11.86-12.19-11-41.77-10.78-51.49.2-7.38-1.13-14.62-2.53-22.28-2.3-12.49-4.67-25.4-.63-40.29,7.08-26.11,25.68-30,36.14-30,1.09,0,2.19,0,3.28.12,1.63.12,3.77,1.67,6,4.35a23.81,23.81,0,0,1,5.36,17.16c-1.41,19.4-3.8,54.36-4,70.47,0,3.15,0,6.67.15,10.39.39,14.46.92,34.26-7.1,42.5C56.36,175.4,52.27,176.81,46.69,176.81Z" transform="translate(32.68 28.91)"/><path class="cls-14" d="M46.69,166.81c-3.38,0-4.89-.84-6.21-2.21-4.07-4.17-8.75-15.24-7.95-44.24.23-8.43-1.26-16.53-2.7-24.36C27.64,84.09,25.58,72.84,29,60.13c4.07-15,13-22.62,26.49-22.62h.84c.22.22.49.51.81.89a13.83,13.83,0,0,1,3,10c-1.41,19.51-3.82,54.69-4.06,71.06,0,3.34,0,6.93.15,10.74.29,10.56.81,30.1-4.26,35.31C51,166.59,48.55,166.81,46.69,166.81Z" transform="translate(32.68 28.91)"/></g><path class="cls-15" d="M72.47,25.55a33.91,33.91,0,0,1,7.68,24.31c-1.25,17.24-3.77,53.69-4,69.9-.31,21.62,6.58,67.05-29.45,67.05s-34.57-51.67-34.15-67c.48-17.6-10-38.3-2.82-64.86,8-29.56,30-38.72,49.82-37.24C64.84,18.05,69.14,21.58,72.47,25.55Z" transform="translate(32.68 28.91)"/><path class="cls-16" d="M-18.6,146.9s24.65-25.54,66.08-23.28,68.65,23.28,68.65,23.28v-42L23.77,92.39-18.6,107.15Z" transform="translate(32.68 28.91)"/></g><ellipse class="cls-15" cx="76.4" cy="175.81" rx="38.67" ry="49.74"/></g><path class="cls-15" d="M76,10a38.13,38.13,0,0,1,8.63,27.33c-1.4,19.37-4.24,60.36-4.5,78.58-.35,24.3,7.4,75.37-33.11,75.37S8.19,133.23,8.67,116C9.21,96.16-2.6,72.89,5.5,43c9-33.23,33.77-43.53,56-41.87C67.46,1.62,72.3,5.58,76,10Z" transform="translate(32.68 28.91)"/><circle class="cls-17" cx="107.16" cy="63.57" r="3.24"/><circle class="cls-17" cx="101.55" cy="50.91" r="3.24"/><circle class="cls-17" cx="66.57" cy="57.39" r="3.24"/><circle class="cls-17" cx="60.91" cy="69.76" r="6.19"/><circle class="cls-17" cx="93.4" cy="61.54" r="6.19"/><circle class="cls-17" cx="78.51" cy="49.17" r="6.19"/><circle class="cls-17" cx="78.51" cy="63.57" r="4.18"/><circle class="cls-17" cx="83.6" cy="111.68" r="9.45"/><circle class="cls-15" cx="83.6" cy="111.68" r="9.45"/><circle class="cls-18" cx="98.02" cy="85.36" r="13.45"/><g class="cls-19"><path class="cls-20" d="M41.22,67.13S79.85,81.64,79,39.35s6.23,41,6.23,41L41.44,70.87Z" transform="translate(32.68 28.91)"/></g><circle class="cls-15" cx="98.02" cy="85.36" r="13.45"/><path d="M68.87,52.81a6.16,6.16,0,1,0,4.25,1.71L68.87,59Z" transform="translate(32.68 28.91)"/><circle class="cls-18" cx="76.78" cy="85.36" r="13.45"/><g class="cls-21"><path class="cls-20" d="M20,67.13S58.61,81.64,57.75,39.35s6.23,41,6.23,41L20.2,70.87Z" transform="translate(32.68 28.91)"/></g><circle class="cls-15" cx="76.78" cy="85.36" r="13.45"/><path d="M47.63,52.81a6.16,6.16,0,1,0,4.25,1.71L47.63,59Z" transform="translate(32.68 28.91)"/><path class="cls-22" d="M44.69,169.31c-15.91,0-28.23-9.93-35.63-28.71A102.54,102.54,0,0,1,3,115.31a2.52,2.52,0,0,1,2.34-2.77h0A2.51,2.51,0,0,1,8,114.77c1.15,10.17,7.5,49.54,36.74,49.54S80.29,125,81.43,114.77a2.51,2.51,0,0,1,2.64-2.23h0a2.52,2.52,0,0,1,2.34,2.77,102.54,102.54,0,0,1-6.09,25.29C72.92,159.38,60.6,169.31,44.69,169.31Z" transform="translate(32.68 28.91)"/><rect class="cls-22" x="113.12" y="135.44" width="7.3" height="18.12" rx="3.41"/><rect class="cls-22" x="33.68" y="135.44" width="7.3" height="18.12" rx="3.41"/><text class="cls-23" transform="translate(58.95 105.62)">ok</text></g></g></svg>