<svg xmlns="http://www.w3.org/2000/svg" xmlns:xlink="http://www.w3.org/1999/xlink" viewBox="0 0 32.29 149.65"><defs><style>.cls-1,.cls-3{fill:#47c3db;}.cls-1,.cls-10,.cls-2,.cls-6{stroke:#000;}.cls-1,.cls-10,.cls-2,.cls-6,.cls-9{stroke-miterlimit:10;stroke-width:2px;}.cls-2,.cls-7{fill:#472ff7;}.cls-4{clip-path:url(#clip-path);}.cls-5{opacity:0.4;}.cls-6,.cls-9{fill:none;}.cls-8{clip-path:url(#clip-path-2);}.cls-9{stroke:#47c3db;}.cls-10{fill:#2e6cde;}</style><clipPath id="clip-path" transform="translate(0.76 4.12)"><polygon class="cls-1" points="2.42 29.28 2.42 2.41 25.45 25.44 2.42 29.28"/></clipPath><clipPath id="clip-path-2" transform="translate(0.76 4.12)"><path class="cls-2" d="M1,132.43a12.84,12.84,0,0,0,12.9,12.1,12.87,12.87,0,0,0,12.93-12.1h0V24.31H1L1,132.43Z"/></clipPath></defs><g id="Layer_2" data-name="Layer 2"><g id="cuttermes"><polygon class="cls-3" points="3.18 33.41 3.18 6.54 26.21 29.57 3.18 33.41"/><g class="cls-4"><polygon class="cls-5" points="5.72 36.29 5.72 0 0 0 0 36.47 5.72 36.29"/></g><polygon class="cls-6" points="3.18 33.41 3.18 6.54 26.21 29.57 3.18 33.41"/><path class="cls-7" d="M1,132.43a12.84,12.84,0,0,0,12.9,12.1,12.87,12.87,0,0,0,12.93-12.1h0V24.31H1L1,132.43Z" transform="translate(0.76 4.12)"/><g class="cls-8"><line class="cls-9" x1="2.41" y1="143.65" x2="31.76" y2="125.73"/><line class="cls-9" x1="2.41" y1="126.55" x2="31.76" y2="108.63"/><line class="cls-9" x1="2.41" y1="109.45" x2="31.76" y2="91.53"/><line class="cls-9" x1="2.41" y1="92.35" x2="31.76" y2="74.43"/><line class="cls-9" x1="2.41" y1="75.25" x2="31.76" y2="57.33"/><line class="cls-9" x1="2.41" y1="58.14" x2="31.76" y2="40.23"/><line class="cls-9" x1="2.41" y1="41.04" x2="31.76" y2="23.12"/></g><path class="cls-6" d="M1,132.43a12.84,12.84,0,0,0,12.9,12.1,12.87,12.87,0,0,0,12.93-12.1h0V24.31H1L1,132.43Z" transform="translate(0.76 4.12)"/><rect class="cls-10" x="6.63" y="47.51" width="14.62" height="71.53" rx="7.31" transform="translate(28.64 170.66) rotate(180)"/><rect class="cls-3" x="10.49" y="54.15" width="6.9" height="58.24" rx="3.45" transform="translate(28.64 170.66) rotate(-180)"/></g></g></svg>