<svg xmlns="http://www.w3.org/2000/svg" xmlns:xlink="http://www.w3.org/1999/xlink" viewBox="0 0 198.91 88.26"><defs><style>.cls-1,.cls-3{fill:#5443db;}.cls-1,.cls-10,.cls-2,.cls-5,.cls-6,.cls-7,.cls-8,.cls-9{stroke:#000;stroke-width:2px;}.cls-1,.cls-10,.cls-11,.cls-2,.cls-5,.cls-6,.cls-7,.cls-8,.cls-9{stroke-miterlimit:10;}.cls-13,.cls-2{fill:#fff;}.cls-4{clip-path:url(#clip-path);}.cls-5{fill:#edc474;}.cls-6{fill:#3f33a4;}.cls-7{fill:#a99ce9;}.cls-8{fill:#edaef1;}.cls-11,.cls-9{fill:none;}.cls-10{fill:#ef80ee;}.cls-11{stroke:#fff;}.cls-12{opacity:0.6;}.cls-14{clip-path:url(#clip-path-2);}.cls-15{fill-opacity:0.25;}.cls-16{clip-path:url(#clip-path-3);}.cls-17{clip-path:url(#clip-path-4);}.cls-18{fill:#400510;}.cls-19{font-size:10px;font-family:RocGrotesk-Bold, Roc Grotesk;font-weight:700;}</style><clipPath id="clip-path" transform="translate(5.51 8.09)"><path class="cls-1" d="M169.43,66.87s-119,9.32-138.71,2.76S3.12,52.72,6.92,37.54,35.56,32,44.53,29.26,70.75,12.36,75.92,6.49s45.89,30.63,59,32.74,27.6,2.8,37.26-2S181.81,66,169.43,66.87Z"/></clipPath><clipPath id="clip-path-2" transform="translate(5.51 8.09)"><circle class="cls-2" cx="44.99" cy="21" r="13.45"/></clipPath><clipPath id="clip-path-3" transform="translate(5.51 8.09)"><circle class="cls-2" cx="22.89" cy="21" r="13.45"/></clipPath><clipPath id="clip-path-4" transform="translate(5.51 8.09)"><path d="M15.28,55.46s4.19-6.75,10.39-3.68,4.66,10.44,4.66,10.44Z"/></clipPath></defs><g id="Layer_2" data-name="Layer 2"><g id="_6_-_Zolen" data-name="6 - Zolen"><path class="cls-3" d="M169.43,66.87s-119,9.32-138.71,2.76S3.12,52.72,6.92,37.54,35.56,32,44.53,29.26,70.75,12.36,75.92,6.49s45.89,30.63,59,32.74,27.6,2.8,37.26-2S181.81,66,169.43,66.87Z" transform="translate(5.51 8.09)"/><g class="cls-4"><path class="cls-5" d="M58.4,7.25l57.66,35.43A54.75,54.75,0,0,0,146,50.77l46.09-1L176.79.61,80.53-6.83Z" transform="translate(5.51 8.09)"/><circle class="cls-6" cx="63.31" cy="59.83" r="6.87"/><circle class="cls-6" cx="81.52" cy="46.19" r="3.94"/><circle class="cls-6" cx="70.21" cy="35.82" r="3.94"/><circle class="cls-6" cx="40.57" cy="58.17" r="6.87"/><circle class="cls-6" cx="21.12" cy="51.73" r="6.87"/><path class="cls-7" d="M-3.33,30.92s19,19.47,43.59,19.47,133.65,0,142.72-6.19S180.33,72,180.33,72L4.19,73-2.67,46.85Z" transform="translate(5.51 8.09)"/><path class="cls-8" d="M-1.56,44.2S19,64.78,49.55,64.78s133.65-3.1,133.65-3.1L177.89,75,31.41,79.16l-21.47-13Z" transform="translate(5.51 8.09)"/><circle class="cls-6" cx="52.92" cy="48.72" r="2.51"/><circle class="cls-6" cx="47.26" cy="39.71" r="2.51"/><circle class="cls-6" cx="38.47" cy="44.26" r="2.51"/><circle class="cls-6" cx="28.48" cy="39.21" r="2.51"/></g><path class="cls-9" d="M169.43,66.87s-119,9.32-138.71,2.76S3.12,52.72,6.92,37.54,35.56,32,44.53,29.26,70.75,12.36,75.92,6.49s45.89,30.63,59,32.74,27.6,2.8,37.26-2S181.81,66,169.43,66.87Z" transform="translate(5.51 8.09)"/><path class="cls-10" d="M127.5-3.51h2.91a3.23,3.23,0,0,1,3.23,3.23v41a0,0,0,0,1,0,0h-9.37a0,0,0,0,1,0,0v-41A3.23,3.23,0,0,1,127.5-3.51Z" transform="translate(56.45 -77.64) rotate(45)"/><circle cx="119.48" cy="42.55" r="7.79"/><circle class="cls-11" cx="119.48" cy="42.55" r="5.96"/><path d="M73.62,25.63c5.09-15.78,7.77-19.11,2.3-19.14S57.11,19.81,50.8,23.2s-17.23,4.25-25.48,3.46S1.29,25.32.56,34.45s-5,32.94,28.59,38.37S84.3,72,84.3,72,68.52,41.41,73.62,25.63ZM31.78,64.11c-6.71,4.81-17.53-3.25-19-8.19A6.06,6.06,0,0,1,13,52.45c3.12-9.72,13.58-6.08,19,1.78C33.89,57,34.34,62.27,31.78,64.11Z" transform="translate(5.51 8.09)"/><path d="M71.82,65.58s31.44-.89,43.57-25.61l-3.73-5.52C99.53,59.18,68.1,60.07,68.1,60.07Z" transform="translate(5.51 8.09)"/><path d="M63,49.49s30.05,9.26,49.48-10.26l-1.75-6.42C91.33,52.32,61.27,43.07,61.27,43.07Z" transform="translate(5.51 8.09)"/><path class="cls-12" d="M32,54.23c-5.39-7.86-15.85-11.5-19-1.78a6.06,6.06,0,0,0-.22,3.47c1.43,4.94,12.25,13,19,8.19C34.34,62.27,33.89,57,32,54.23Z" transform="translate(5.51 8.09)"/><circle class="cls-13" cx="50.5" cy="29.1" r="13.45"/><g class="cls-14"><path class="cls-15" d="M69.11,31.67S30.48,46.19,31.34,3.89s-6.23,41-6.23,41l43.78-9.44Z" transform="translate(5.51 8.09)"/></g><circle class="cls-9" cx="50.5" cy="29.1" r="13.45"/><path d="M46.35,16.62l-8.62,5a5.58,5.58,0,1,0,8.62-5Z" transform="translate(5.51 8.09)"/><circle class="cls-13" cx="28.39" cy="29.1" r="13.45"/><g class="cls-16"><path class="cls-15" d="M47,31.67S8.37,46.19,9.23,3.89,3,44.86,3,44.86l43.78-9.44Z" transform="translate(5.51 8.09)"/></g><circle class="cls-9" cx="28.39" cy="29.1" r="13.45"/><path d="M24.24,16.62l-8.61,5a5.58,5.58,0,1,0,8.61-5Z" transform="translate(5.51 8.09)"/><path d="M15.28,55.46s4.19-6.75,10.39-3.68,4.66,10.44,4.66,10.44Z" transform="translate(5.51 8.09)"/><g class="cls-17"><path class="cls-18" d="M16.35,57.86s3.22-5.18,8-2.82,3.57,8,3.57,8Z" transform="translate(5.51 8.09)"/></g><text class="cls-19" transform="translate(60.72 54.69)">ok</text></g></g></svg>