<svg xmlns="http://www.w3.org/2000/svg" xmlns:xlink="http://www.w3.org/1999/xlink" viewBox="0 0 197.45 361.96"><defs><style>.cls-1{fill:#472ff7;}.cls-2{fill:#2c6cde;}.cls-11,.cls-3{fill:#47c3db;}.cls-14,.cls-15,.cls-16,.cls-17,.cls-21,.cls-22,.cls-23,.cls-24,.cls-25,.cls-3,.cls-4,.cls-5{stroke:#000;}.cls-14,.cls-15,.cls-16,.cls-17,.cls-21,.cls-22,.cls-23,.cls-24,.cls-25,.cls-26,.cls-28,.cls-3,.cls-31,.cls-4,.cls-5{stroke-miterlimit:10;}.cls-15,.cls-16,.cls-17,.cls-21,.cls-22,.cls-23,.cls-24,.cls-25,.cls-3,.cls-4,.cls-5{stroke-width:2px;}.cls-19,.cls-4{fill:#5443db;}.cls-5{fill:#482ff7;}.cls-6{clip-path:url(#clip-path);}.cls-7{fill:#3623b9;}.cls-8{fill:#6c59f9;}.cls-9{clip-path:url(#clip-path-2);}.cls-10{opacity:0.3;}.cls-12{clip-path:url(#clip-path-3);}.cls-13{opacity:0.3;}.cls-14,.cls-15,.cls-26,.cls-28,.cls-31{fill:none;}.cls-16{fill:#2e6cde;}.cls-17,.cls-27,.cls-30{fill:#fff;}.cls-18{fill:#333;}.cls-20{clip-path:url(#clip-path-4);}.cls-21{fill:#edc474;}.cls-22{fill:#3f32a4;}.cls-23{fill:#a99ce9;}.cls-24{fill:#edaef1;}.cls-25{fill:#ef80ee;}.cls-26,.cls-28{stroke:#fff;}.cls-27{opacity:0.4;}.cls-28,.cls-31{stroke-linecap:round;stroke-width:8px;}.cls-28,.cls-29,.cls-31{opacity:0.5;}.cls-31{stroke:#eec470;}</style><clipPath id="clip-path"><path class="cls-1" d="M27.52,327.2c45.61,18.14,96.43,17.18,142.08-.87l.33-.13V166.84H27.52"/></clipPath><clipPath id="clip-path-2"><ellipse class="cls-2" cx="98.78" cy="166.84" rx="71.2" ry="8.67"/></clipPath><clipPath id="clip-path-3"><circle class="cls-3" cx="131.41" cy="147.16" r="18.41"/></clipPath><clipPath id="clip-path-4"><path class="cls-4" d="M168.4,137S68.72,170.12,50.54,168.68s-27.14-8.61-27.11-22.37,23.29-10.77,30.37-15,18.81-20,22-26.08,45.66,16.45,57.31,15.48,24.16-3.44,31.39-9.61S178.78,133.62,168.4,137Z"/></clipPath></defs><g id="Layer_2" data-name="Layer 2"><g id="Layer_2-2" data-name="Layer 2"><ellipse class="cls-5" cx="98.53" cy="314.72" rx="81.9" ry="27.12"/><path class="cls-1" d="M27.52,327.2c45.61,18.14,96.43,17.18,142.08-.87l.33-.13V166.84H27.52"/><g class="cls-6"><circle cx="45.76" cy="153.68" r="1.71"/><circle cx="52.58" cy="153.68" r="1.71"/><circle cx="59.4" cy="153.68" r="1.71"/><circle cx="66.22" cy="153.68" r="1.71"/><circle cx="73.04" cy="153.68" r="1.71"/><circle cx="79.86" cy="153.68" r="1.71"/><circle cx="86.68" cy="153.68" r="1.71"/><circle cx="93.5" cy="153.68" r="1.71"/><circle cx="100.32" cy="153.68" r="1.71"/><circle cx="107.14" cy="153.68" r="1.71"/><circle cx="113.96" cy="153.68" r="1.71"/><circle cx="120.78" cy="153.68" r="1.71"/><circle cx="127.6" cy="153.68" r="1.71"/><circle cx="134.42" cy="153.68" r="1.71"/><circle cx="141.24" cy="153.68" r="1.71"/><circle cx="148.06" cy="153.68" r="1.71"/><circle cx="49.17" cy="160.5" r="1.71"/><circle cx="55.99" cy="160.5" r="1.71"/><circle cx="62.81" cy="160.5" r="1.71"/><circle cx="69.63" cy="160.5" r="1.71"/><circle cx="76.45" cy="160.5" r="1.71"/><circle cx="83.27" cy="160.5" r="1.71"/><circle cx="90.09" cy="160.5" r="1.71"/><circle cx="96.91" cy="160.5" r="1.71"/><circle cx="103.73" cy="160.5" r="1.71"/><circle cx="110.55" cy="160.5" r="1.71"/><circle cx="117.37" cy="160.5" r="1.71"/><circle cx="124.19" cy="160.5" r="1.71"/><circle cx="131.01" cy="160.5" r="1.71"/><circle cx="137.83" cy="160.5" r="1.71"/><circle cx="144.65" cy="160.5" r="1.71"/><circle cx="151.47" cy="160.5" r="1.71"/><circle cx="45.76" cy="167.32" r="1.71"/><circle cx="52.58" cy="167.32" r="1.71"/><circle cx="59.4" cy="167.32" r="1.71"/><circle cx="66.22" cy="167.32" r="1.71"/><circle cx="73.04" cy="167.32" r="1.71"/><circle cx="79.86" cy="167.32" r="1.71"/><circle cx="86.68" cy="167.32" r="1.71"/><circle cx="93.5" cy="167.32" r="1.71"/><circle cx="100.32" cy="167.32" r="1.71"/><circle cx="107.14" cy="167.32" r="1.71"/><circle cx="113.96" cy="167.32" r="1.71"/><circle cx="120.78" cy="167.32" r="1.71"/><circle cx="127.6" cy="167.32" r="1.71"/><circle cx="134.42" cy="167.32" r="1.71"/><circle cx="141.24" cy="167.32" r="1.71"/><circle cx="148.06" cy="167.32" r="1.71"/><circle cx="49.17" cy="174.14" r="1.71"/><circle cx="55.99" cy="174.14" r="1.71"/><circle cx="62.81" cy="174.14" r="1.71"/><circle cx="69.63" cy="174.14" r="1.71"/><circle cx="76.45" cy="174.14" r="1.71"/><circle cx="83.27" cy="174.14" r="1.71"/><circle cx="90.09" cy="174.14" r="1.71"/><circle cx="96.91" cy="174.14" r="1.71"/><circle cx="103.73" cy="174.14" r="1.71"/><circle cx="110.55" cy="174.14" r="1.71"/><circle cx="117.37" cy="174.14" r="1.71"/><circle cx="124.19" cy="174.14" r="1.71"/><circle cx="131.01" cy="174.14" r="1.71"/><circle cx="137.83" cy="174.14" r="1.71"/><circle cx="144.65" cy="174.14" r="1.71"/><circle cx="151.47" cy="174.14" r="1.71"/><circle cx="45.76" cy="180.96" r="1.71"/><circle cx="52.58" cy="180.96" r="1.71"/><circle cx="59.4" cy="180.96" r="1.71"/><circle cx="66.22" cy="180.96" r="1.71"/><circle cx="73.04" cy="180.96" r="1.71"/><circle cx="79.86" cy="180.96" r="1.71"/><circle cx="86.68" cy="180.96" r="1.71"/><circle cx="93.5" cy="180.96" r="1.71"/><circle cx="100.32" cy="180.96" r="1.71"/><circle cx="107.14" cy="180.96" r="1.71"/><circle cx="113.96" cy="180.96" r="1.71"/><circle cx="120.78" cy="180.96" r="1.71"/><circle cx="127.6" cy="180.96" r="1.71"/><circle cx="134.42" cy="180.96" r="1.71"/><circle cx="141.24" cy="180.96" r="1.71"/><circle cx="148.06" cy="180.96" r="1.71"/><circle cx="49.17" cy="187.78" r="1.71"/><circle cx="55.99" cy="187.78" r="1.71"/><circle cx="62.81" cy="187.78" r="1.71"/><circle cx="69.63" cy="187.78" r="1.71"/><circle cx="76.45" cy="187.78" r="1.71"/><circle cx="83.27" cy="187.78" r="1.71"/><circle cx="90.09" cy="187.78" r="1.71"/><circle cx="96.91" cy="187.78" r="1.71"/><circle cx="103.73" cy="187.78" r="1.71"/><circle cx="110.55" cy="187.78" r="1.71"/><circle cx="117.37" cy="187.78" r="1.71"/><circle cx="124.19" cy="187.78" r="1.71"/><circle cx="131.01" cy="187.78" r="1.71"/><circle cx="137.83" cy="187.78" r="1.71"/><circle cx="144.65" cy="187.78" r="1.71"/><circle cx="151.47" cy="187.78" r="1.71"/><circle cx="45.76" cy="194.6" r="1.71"/><circle cx="52.58" cy="194.6" r="1.71"/><circle cx="59.4" cy="194.6" r="1.71"/><circle cx="66.22" cy="194.6" r="1.71"/><circle cx="73.04" cy="194.6" r="1.71"/><circle cx="79.86" cy="194.6" r="1.71"/><circle cx="86.68" cy="194.6" r="1.71"/><circle cx="93.5" cy="194.6" r="1.71"/><circle cx="100.32" cy="194.6" r="1.71"/><circle cx="107.14" cy="194.6" r="1.71"/><circle cx="113.96" cy="194.6" r="1.71"/><circle cx="120.78" cy="194.6" r="1.71"/><circle cx="127.6" cy="194.6" r="1.71"/><circle cx="134.42" cy="194.6" r="1.71"/><circle cx="141.24" cy="194.6" r="1.71"/><circle cx="148.06" cy="194.6" r="1.71"/><circle cx="49.17" cy="201.42" r="1.71"/><circle cx="55.99" cy="201.42" r="1.71"/><circle cx="62.81" cy="201.42" r="1.71"/><circle cx="69.63" cy="201.42" r="1.71"/><circle cx="76.45" cy="201.42" r="1.71"/><circle cx="83.27" cy="201.42" r="1.71"/><circle cx="90.09" cy="201.42" r="1.71"/><circle cx="96.91" cy="201.42" r="1.71"/><circle cx="103.73" cy="201.42" r="1.71"/><circle cx="110.55" cy="201.42" r="1.71"/><circle cx="117.37" cy="201.42" r="1.71"/><circle cx="124.19" cy="201.42" r="1.71"/><circle cx="131.01" cy="201.42" r="1.71"/><circle cx="137.83" cy="201.42" r="1.71"/><circle cx="144.65" cy="201.42" r="1.71"/><circle cx="151.47" cy="201.42" r="1.71"/><circle cx="45.76" cy="208.24" r="1.71"/><circle cx="52.58" cy="208.24" r="1.71"/><circle cx="59.4" cy="208.24" r="1.71"/><circle cx="66.22" cy="208.24" r="1.71"/><circle cx="73.04" cy="208.24" r="1.71"/><circle cx="79.86" cy="208.24" r="1.71"/><circle cx="86.68" cy="208.24" r="1.71"/><circle cx="93.5" cy="208.24" r="1.71"/><circle cx="100.32" cy="208.24" r="1.71"/><circle cx="107.14" cy="208.24" r="1.71"/><circle cx="113.96" cy="208.24" r="1.71"/><circle cx="120.78" cy="208.24" r="1.71"/><circle cx="127.6" cy="208.24" r="1.71"/><circle cx="134.42" cy="208.24" r="1.71"/><circle cx="141.24" cy="208.24" r="1.71"/><circle cx="148.06" cy="208.24" r="1.71"/><circle cx="49.17" cy="215.06" r="1.71"/><circle cx="55.99" cy="215.06" r="1.71"/><circle cx="62.81" cy="215.06" r="1.71"/><circle cx="69.63" cy="215.06" r="1.71"/><circle cx="76.45" cy="215.06" r="1.71"/><circle cx="83.27" cy="215.06" r="1.71"/><circle cx="90.09" cy="215.06" r="1.71"/><circle cx="96.91" cy="215.06" r="1.71"/><circle cx="103.73" cy="215.06" r="1.71"/><circle cx="110.55" cy="215.06" r="1.71"/><circle cx="117.37" cy="215.06" r="1.71"/><circle cx="124.19" cy="215.06" r="1.71"/><circle cx="131.01" cy="215.06" r="1.71"/><circle cx="137.83" cy="215.06" r="1.71"/><circle cx="144.65" cy="215.06" r="1.71"/><circle cx="151.47" cy="215.06" r="1.71"/><circle cx="45.76" cy="221.88" r="1.71"/><circle cx="52.58" cy="221.88" r="1.71"/><circle cx="59.4" cy="221.88" r="1.71"/><circle cx="66.22" cy="221.88" r="1.71"/><circle cx="73.04" cy="221.88" r="1.71"/><circle cx="79.86" cy="221.88" r="1.71"/><circle cx="86.68" cy="221.88" r="1.71"/><circle cx="93.5" cy="221.88" r="1.71"/><circle cx="100.32" cy="221.88" r="1.71"/><circle cx="107.14" cy="221.88" r="1.71"/><circle cx="113.96" cy="221.88" r="1.71"/><circle cx="120.78" cy="221.88" r="1.71"/><circle cx="127.6" cy="221.88" r="1.71"/><circle cx="134.42" cy="221.88" r="1.71"/><circle cx="141.24" cy="221.88" r="1.71"/><circle cx="148.06" cy="221.88" r="1.71"/><circle cx="49.17" cy="228.7" r="1.71"/><circle cx="55.99" cy="228.7" r="1.71"/><circle cx="62.81" cy="228.7" r="1.71"/><circle cx="69.63" cy="228.7" r="1.71"/><circle cx="76.45" cy="228.7" r="1.71"/><circle cx="83.27" cy="228.7" r="1.71"/><circle cx="90.09" cy="228.7" r="1.71"/><circle cx="96.91" cy="228.7" r="1.71"/><circle cx="103.73" cy="228.7" r="1.71"/><circle cx="110.55" cy="228.7" r="1.71"/><circle cx="117.37" cy="228.7" r="1.71"/><circle cx="124.19" cy="228.7" r="1.71"/><circle cx="131.01" cy="228.7" r="1.71"/><circle cx="137.83" cy="228.7" r="1.71"/><circle cx="144.65" cy="228.7" r="1.71"/><circle cx="151.47" cy="228.7" r="1.71"/><circle cx="45.76" cy="235.52" r="1.71"/><circle cx="52.58" cy="235.52" r="1.71"/><circle cx="59.4" cy="235.52" r="1.71"/><circle cx="66.22" cy="235.52" r="1.71"/><circle cx="73.04" cy="235.52" r="1.71"/><circle cx="79.86" cy="235.52" r="1.71"/><circle cx="86.68" cy="235.52" r="1.71"/><circle cx="93.5" cy="235.52" r="1.71"/><circle cx="100.32" cy="235.52" r="1.71"/><circle cx="107.14" cy="235.52" r="1.71"/><circle cx="113.96" cy="235.52" r="1.71"/><circle cx="120.78" cy="235.52" r="1.71"/><circle cx="127.6" cy="235.52" r="1.71"/><circle cx="134.42" cy="235.52" r="1.71"/><circle cx="141.24" cy="235.52" r="1.71"/><circle cx="148.06" cy="235.52" r="1.71"/><circle cx="49.17" cy="242.34" r="1.71"/><circle cx="55.99" cy="242.34" r="1.71"/><circle cx="62.81" cy="242.34" r="1.71"/><circle cx="69.63" cy="242.34" r="1.71"/><circle cx="76.45" cy="242.34" r="1.71"/><circle cx="83.27" cy="242.34" r="1.71"/><circle cx="90.09" cy="242.34" r="1.71"/><circle cx="96.91" cy="242.34" r="1.71"/><circle cx="103.73" cy="242.34" r="1.71"/><circle cx="110.55" cy="242.34" r="1.71"/><circle cx="117.37" cy="242.34" r="1.71"/><circle cx="124.19" cy="242.34" r="1.71"/><circle cx="131.01" cy="242.34" r="1.71"/><circle cx="137.83" cy="242.34" r="1.71"/><circle cx="144.65" cy="242.34" r="1.71"/><circle cx="151.47" cy="242.34" r="1.71"/><circle cx="45.76" cy="249.16" r="1.71"/><circle cx="52.58" cy="249.16" r="1.71"/><circle cx="59.4" cy="249.16" r="1.71"/><circle cx="66.22" cy="249.16" r="1.71"/><circle cx="73.04" cy="249.16" r="1.71"/><circle cx="79.86" cy="249.16" r="1.71"/><circle cx="86.68" cy="249.16" r="1.71"/><circle cx="93.5" cy="249.16" r="1.71"/><circle cx="100.32" cy="249.16" r="1.71"/><circle cx="107.14" cy="249.16" r="1.71"/><circle cx="113.96" cy="249.16" r="1.71"/><circle cx="120.78" cy="249.16" r="1.71"/><circle cx="127.6" cy="249.16" r="1.71"/><circle cx="134.42" cy="249.16" r="1.71"/><circle cx="141.24" cy="249.16" r="1.71"/><circle cx="148.06" cy="249.16" r="1.71"/><circle cx="49.17" cy="255.98" r="1.71"/><circle cx="55.99" cy="255.98" r="1.71"/><circle cx="62.81" cy="255.98" r="1.71"/><circle cx="69.63" cy="255.98" r="1.71"/><circle cx="76.45" cy="255.98" r="1.71"/><circle cx="83.27" cy="255.98" r="1.71"/><circle cx="90.09" cy="255.98" r="1.71"/><circle cx="96.91" cy="255.98" r="1.71"/><circle cx="103.73" cy="255.98" r="1.71"/><circle cx="110.55" cy="255.98" r="1.71"/><circle cx="117.37" cy="255.98" r="1.71"/><circle cx="124.19" cy="255.98" r="1.71"/><circle cx="131.01" cy="255.98" r="1.71"/><circle cx="137.83" cy="255.98" r="1.71"/><circle cx="144.65" cy="255.98" r="1.71"/><circle cx="151.47" cy="255.98" r="1.71"/><circle cx="45.76" cy="262.8" r="1.71"/><circle cx="52.58" cy="262.8" r="1.71"/><circle cx="59.4" cy="262.8" r="1.71"/><circle cx="66.22" cy="262.8" r="1.71"/><circle cx="73.04" cy="262.8" r="1.71"/><circle cx="79.86" cy="262.8" r="1.71"/><circle cx="86.68" cy="262.8" r="1.71"/><circle cx="93.5" cy="262.8" r="1.71"/><circle cx="100.32" cy="262.8" r="1.71"/><circle cx="107.14" cy="262.8" r="1.71"/><circle cx="113.96" cy="262.8" r="1.71"/><circle cx="120.78" cy="262.8" r="1.71"/><circle cx="127.6" cy="262.8" r="1.71"/><circle cx="134.42" cy="262.8" r="1.71"/><circle cx="141.24" cy="262.8" r="1.71"/><circle cx="148.06" cy="262.8" r="1.71"/><circle cx="49.17" cy="269.62" r="1.71"/><circle cx="55.99" cy="269.62" r="1.71"/><circle cx="62.81" cy="269.62" r="1.71"/><circle cx="69.63" cy="269.62" r="1.71"/><circle cx="76.45" cy="269.62" r="1.71"/><circle cx="83.27" cy="269.62" r="1.71"/><circle cx="90.09" cy="269.62" r="1.71"/><circle cx="96.91" cy="269.62" r="1.71"/><circle cx="103.73" cy="269.62" r="1.71"/><circle cx="110.55" cy="269.62" r="1.71"/><circle cx="117.37" cy="269.62" r="1.71"/><circle cx="124.19" cy="269.62" r="1.71"/><circle cx="131.01" cy="269.62" r="1.71"/><circle cx="137.83" cy="269.62" r="1.71"/><circle cx="144.65" cy="269.62" r="1.71"/><circle cx="151.47" cy="269.62" r="1.71"/><circle cx="45.76" cy="276.44" r="1.71"/><circle cx="52.58" cy="276.44" r="1.71"/><circle cx="59.4" cy="276.44" r="1.71"/><circle cx="66.22" cy="276.44" r="1.71"/><circle cx="73.04" cy="276.44" r="1.71"/><circle cx="79.86" cy="276.44" r="1.71"/><circle cx="86.68" cy="276.44" r="1.71"/><circle cx="93.5" cy="276.44" r="1.71"/><circle cx="100.32" cy="276.44" r="1.71"/><circle cx="107.14" cy="276.44" r="1.71"/><circle cx="113.96" cy="276.44" r="1.71"/><circle cx="120.78" cy="276.44" r="1.71"/><circle cx="127.6" cy="276.44" r="1.71"/><circle cx="134.42" cy="276.44" r="1.71"/><circle cx="141.24" cy="276.44" r="1.71"/><circle cx="148.06" cy="276.44" r="1.71"/><circle cx="49.17" cy="283.26" r="1.71"/><circle cx="55.99" cy="283.26" r="1.71"/><circle cx="62.81" cy="283.26" r="1.71"/><circle cx="69.63" cy="283.26" r="1.71"/><circle cx="76.45" cy="283.26" r="1.71"/><circle cx="83.27" cy="283.26" r="1.71"/><circle cx="90.09" cy="283.26" r="1.71"/><circle cx="96.91" cy="283.26" r="1.71"/><circle cx="103.73" cy="283.26" r="1.71"/><circle cx="110.55" cy="283.26" r="1.71"/><circle cx="117.37" cy="283.26" r="1.71"/><circle cx="124.19" cy="283.26" r="1.71"/><circle cx="131.01" cy="283.26" r="1.71"/><circle cx="137.83" cy="283.26" r="1.71"/><circle cx="144.65" cy="283.26" r="1.71"/><circle cx="151.47" cy="283.26" r="1.71"/><circle cx="45.76" cy="290.08" r="1.71"/><circle cx="52.58" cy="290.08" r="1.71"/><circle cx="59.4" cy="290.08" r="1.71"/><circle cx="66.22" cy="290.08" r="1.71"/><circle cx="73.04" cy="290.08" r="1.71"/><circle cx="79.86" cy="290.08" r="1.71"/><circle cx="86.68" cy="290.08" r="1.71"/><circle cx="93.5" cy="290.08" r="1.71"/><circle cx="100.32" cy="290.08" r="1.71"/><circle cx="107.14" cy="290.08" r="1.71"/><circle cx="113.96" cy="290.08" r="1.71"/><circle cx="120.78" cy="290.08" r="1.71"/><circle cx="127.6" cy="290.08" r="1.71"/><circle cx="134.42" cy="290.08" r="1.71"/><circle cx="141.24" cy="290.08" r="1.71"/><circle cx="148.06" cy="290.08" r="1.71"/><circle cx="49.17" cy="296.9" r="1.71"/><circle cx="55.99" cy="296.9" r="1.71"/><circle cx="62.81" cy="296.9" r="1.71"/><circle cx="69.63" cy="296.9" r="1.71"/><circle cx="76.45" cy="296.9" r="1.71"/><circle cx="83.27" cy="296.9" r="1.71"/><circle cx="90.09" cy="296.9" r="1.71"/><circle cx="96.91" cy="296.9" r="1.71"/><circle cx="103.73" cy="296.9" r="1.71"/><circle cx="110.55" cy="296.9" r="1.71"/><circle cx="117.37" cy="296.9" r="1.71"/><circle cx="124.19" cy="296.9" r="1.71"/><circle cx="131.01" cy="296.9" r="1.71"/><circle cx="137.83" cy="296.9" r="1.71"/><circle cx="144.65" cy="296.9" r="1.71"/><circle cx="151.47" cy="296.9" r="1.71"/><circle cx="45.76" cy="303.72" r="1.71"/><circle cx="52.58" cy="303.72" r="1.71"/><circle cx="59.4" cy="303.72" r="1.71"/><circle cx="66.22" cy="303.72" r="1.71"/><circle cx="73.04" cy="303.72" r="1.71"/><circle cx="79.86" cy="303.72" r="1.71"/><circle cx="86.68" cy="303.72" r="1.71"/><circle cx="93.5" cy="303.72" r="1.71"/><circle cx="100.32" cy="303.72" r="1.71"/><circle cx="107.14" cy="303.72" r="1.71"/><circle cx="113.96" cy="303.72" r="1.71"/><circle cx="120.78" cy="303.72" r="1.71"/><circle cx="127.6" cy="303.72" r="1.71"/><circle cx="134.42" cy="303.72" r="1.71"/><circle cx="141.24" cy="303.72" r="1.71"/><circle cx="148.06" cy="303.72" r="1.71"/><circle cx="49.17" cy="310.54" r="1.71"/><circle cx="55.99" cy="310.54" r="1.71"/><circle cx="62.81" cy="310.54" r="1.71"/><circle cx="69.63" cy="310.54" r="1.71"/><circle cx="76.45" cy="310.54" r="1.71"/><circle cx="83.27" cy="310.54" r="1.71"/><circle cx="90.09" cy="310.54" r="1.71"/><circle cx="96.91" cy="310.54" r="1.71"/><circle cx="103.73" cy="310.54" r="1.71"/><circle cx="110.55" cy="310.54" r="1.71"/><circle cx="117.37" cy="310.54" r="1.71"/><circle cx="124.19" cy="310.54" r="1.71"/><circle cx="131.01" cy="310.54" r="1.71"/><circle cx="137.83" cy="310.54" r="1.71"/><circle cx="144.65" cy="310.54" r="1.71"/><circle cx="151.47" cy="310.54" r="1.71"/><circle cx="45.76" cy="317.36" r="1.71"/><circle cx="52.58" cy="317.36" r="1.71"/><circle cx="59.4" cy="317.36" r="1.71"/><circle cx="66.22" cy="317.36" r="1.71"/><circle cx="73.04" cy="317.36" r="1.71"/><circle cx="79.86" cy="317.36" r="1.71"/><circle cx="86.68" cy="317.36" r="1.71"/><circle cx="93.5" cy="317.36" r="1.71"/><circle cx="100.32" cy="317.36" r="1.71"/><circle cx="107.14" cy="317.36" r="1.71"/><circle cx="113.96" cy="317.36" r="1.71"/><circle cx="120.78" cy="317.36" r="1.71"/><circle cx="127.6" cy="317.36" r="1.71"/><circle cx="134.42" cy="317.36" r="1.71"/><circle cx="141.24" cy="317.36" r="1.71"/><circle cx="148.06" cy="317.36" r="1.71"/><circle cx="49.17" cy="324.18" r="1.71"/><circle cx="55.99" cy="324.18" r="1.71"/><circle cx="62.81" cy="324.18" r="1.71"/><circle cx="69.63" cy="324.18" r="1.71"/><circle cx="76.45" cy="324.18" r="1.71"/><circle cx="83.27" cy="324.18" r="1.71"/><circle cx="90.09" cy="324.18" r="1.71"/><circle cx="96.91" cy="324.18" r="1.71"/><circle cx="103.73" cy="324.18" r="1.71"/><circle cx="110.55" cy="324.18" r="1.71"/><circle cx="117.37" cy="324.18" r="1.71"/><circle cx="124.19" cy="324.18" r="1.71"/><circle cx="131.01" cy="324.18" r="1.71"/><circle cx="137.83" cy="324.18" r="1.71"/><circle cx="144.65" cy="324.18" r="1.71"/><circle cx="151.47" cy="324.18" r="1.71"/><circle cx="45.76" cy="331" r="1.71"/><circle cx="52.58" cy="331" r="1.71"/><circle cx="59.4" cy="331" r="1.71"/><circle cx="66.22" cy="331" r="1.71"/><circle cx="73.04" cy="331" r="1.71"/><circle cx="79.86" cy="331" r="1.71"/><circle cx="86.68" cy="331" r="1.71"/><circle cx="93.5" cy="331" r="1.71"/><circle cx="100.32" cy="331" r="1.71"/><circle cx="107.14" cy="331" r="1.71"/><circle cx="113.96" cy="331" r="1.71"/><circle cx="120.78" cy="331" r="1.71"/><circle cx="127.6" cy="331" r="1.71"/><circle cx="134.42" cy="331" r="1.71"/><circle cx="141.24" cy="331" r="1.71"/><circle cx="148.06" cy="331" r="1.71"/><circle cx="49.17" cy="337.82" r="1.71"/><circle cx="55.99" cy="337.82" r="1.71"/><circle cx="62.81" cy="337.82" r="1.71"/><circle cx="69.63" cy="337.82" r="1.71"/><circle cx="76.45" cy="337.82" r="1.71"/><circle cx="83.27" cy="337.82" r="1.71"/><circle cx="90.09" cy="337.82" r="1.71"/><circle cx="96.91" cy="337.82" r="1.71"/><circle cx="103.73" cy="337.82" r="1.71"/><circle cx="110.55" cy="337.82" r="1.71"/><circle cx="117.37" cy="337.82" r="1.71"/><circle cx="124.19" cy="337.82" r="1.71"/><circle cx="131.01" cy="337.82" r="1.71"/><circle cx="137.83" cy="337.82" r="1.71"/><circle cx="144.65" cy="337.82" r="1.71"/><circle cx="151.47" cy="337.82" r="1.71"/><polygon class="cls-7" points="144.81 360.94 144.81 156.56 176.3 156.56 176.3 361.96 144.81 360.94"/><polygon class="cls-8" points="53.23 360.94 53.23 156.56 21.74 156.56 21.74 361.96 53.23 360.94"/></g><ellipse class="cls-2" cx="98.78" cy="166.84" rx="71.2" ry="8.67"/><g class="cls-9"><path class="cls-10" d="M50.54,168.68s129.71,13.83,111.26-17.2C148.21,128.6,92,152.63,92,152.63L50.54,168.68"/></g><circle class="cls-11" cx="131.41" cy="147.16" r="18.41"/><g class="cls-12"><g class="cls-13"><path class="cls-14" d="M167,197.23c-6.53-3.94-5.49-5.65-12-9.58s-7.55-2.22-14.07-6.16-5.49-5.65-12-9.58-7.56-2.23-14.08-6.16"/><path class="cls-14" d="M166.34,194.52c-6.53-3.93-5.49-5.65-12-9.58s-7.55-2.22-14.07-6.16-5.49-5.64-12-9.58S120.67,167,114.15,163"/><path class="cls-14" d="M165.67,191.81c-6.53-3.93-5.49-5.64-12-9.58s-7.55-2.22-14.07-6.15-5.49-5.65-12-9.59-7.56-2.22-14.08-6.16"/><path class="cls-14" d="M165,189.11c-6.53-3.94-5.49-5.65-12-9.59s-7.55-2.22-14.07-6.15-5.49-5.65-12-9.59-7.56-2.22-14.08-6.16"/><path class="cls-14" d="M164.33,186.4c-6.53-3.94-5.49-5.65-12-9.58s-7.55-2.23-14.07-6.16-5.49-5.65-12-9.58-7.56-2.23-14.08-6.16"/><path class="cls-14" d="M163.66,183.69c-6.53-3.93-5.49-5.65-12-9.58s-7.55-2.22-14.07-6.16-5.49-5.65-12-9.58-7.56-2.23-14.08-6.16"/><path class="cls-14" d="M163,181c-6.53-3.93-5.49-5.64-12-9.58s-7.55-2.22-14.07-6.15-5.49-5.65-12-9.59-7.56-2.22-14.08-6.16"/><path class="cls-14" d="M162.32,178.27c-6.53-3.93-5.49-5.64-12-9.58s-7.55-2.22-14.07-6.15-5.49-5.65-12-9.59-7.56-2.22-14.08-6.16"/><path class="cls-14" d="M161.65,175.57c-6.53-3.94-5.49-5.65-12-9.59s-7.55-2.22-14.07-6.15-5.49-5.65-12-9.58S116,148,109.46,144.09"/><path class="cls-14" d="M161,172.86c-6.53-3.94-5.49-5.65-12-9.58s-7.55-2.22-14.07-6.16-5.49-5.65-12-9.58-7.56-2.23-14.08-6.16"/><path class="cls-14" d="M160.31,170.15c-6.53-3.93-5.49-5.65-12-9.58s-7.55-2.22-14.07-6.16-5.49-5.64-12-9.58-7.56-2.22-14.08-6.16"/><path class="cls-14" d="M159.64,167.44c-6.53-3.93-5.49-5.64-12-9.58s-7.55-2.22-14.07-6.15-5.49-5.65-12-9.59S114,139.9,107.45,136"/><path class="cls-14" d="M159,164.74c-6.53-3.94-5.49-5.65-12-9.59s-7.55-2.22-14.07-6.15-5.5-5.65-12-9.59-7.56-2.22-14.08-6.16"/><path class="cls-14" d="M158.3,162c-6.53-3.94-5.49-5.65-12-9.58s-7.55-2.22-14.07-6.16-5.5-5.65-12-9.58-7.56-2.23-14.08-6.16"/><path class="cls-14" d="M157.63,159.32c-6.53-3.93-5.49-5.65-12-9.58s-7.55-2.22-14.07-6.16-5.5-5.64-12-9.58-7.56-2.22-14.09-6.16"/><path class="cls-14" d="M157,156.61c-6.53-3.93-5.49-5.64-12-9.58s-7.55-2.22-14.07-6.15-5.5-5.65-12-9.59-7.56-2.22-14.09-6.16"/><path class="cls-14" d="M156.29,153.91c-6.53-3.94-5.49-5.65-12-9.59s-7.55-2.22-14.07-6.15-5.5-5.65-12-9.59-7.56-2.22-14.09-6.16"/><path class="cls-14" d="M155.62,151.2c-6.53-3.94-5.49-5.65-12-9.58s-7.55-2.23-14.07-6.16-5.5-5.65-12-9.58-7.56-2.23-14.09-6.16"/><path class="cls-14" d="M155,148.49c-6.53-3.93-5.5-5.65-12-9.58s-7.55-2.22-14.07-6.16-5.5-5.65-12-9.58-7.56-2.23-14.09-6.16"/><path class="cls-14" d="M154.27,145.78c-6.52-3.93-5.49-5.65-12-9.58s-7.55-2.22-14.07-6.15-5.5-5.65-12-9.59-7.56-2.22-14.09-6.16"/><path class="cls-14" d="M153.6,143.07c-6.52-3.93-5.49-5.64-12-9.58s-7.55-2.22-14.07-6.15-5.5-5.65-12-9.59-7.56-2.22-14.09-6.16"/><path class="cls-14" d="M152.93,140.37c-6.52-3.94-5.49-5.65-12-9.59s-7.55-2.22-14.07-6.15-5.5-5.65-12-9.59-7.56-2.22-14.09-6.16"/><path class="cls-14" d="M152.26,137.66c-6.52-3.94-5.49-5.65-12-9.58s-7.55-2.22-14.07-6.16-5.5-5.65-12-9.58-7.56-2.23-14.09-6.16"/><path class="cls-14" d="M151.59,135c-6.52-3.93-5.49-5.65-12-9.58s-7.55-2.22-14.07-6.16-5.5-5.64-12-9.58-7.56-2.22-14.09-6.16"/><path class="cls-14" d="M150.92,132.24c-6.52-3.93-5.49-5.64-12-9.58s-7.55-2.22-14.07-6.15-5.5-5.65-12-9.59-7.56-2.22-14.09-6.16"/><path class="cls-14" d="M150.25,129.54c-6.52-3.94-5.49-5.65-12-9.59s-7.55-2.22-14.07-6.15-5.5-5.65-12-9.59-7.56-2.22-14.09-6.16"/><path class="cls-14" d="M149.58,126.83c-6.52-3.94-5.49-5.65-12-9.58S130,115,123.5,111.09s-5.5-5.65-12-9.58-7.56-2.23-14.09-6.16"/></g></g><circle class="cls-15" cx="131.41" cy="147.16" r="18.41"/><circle class="cls-16" cx="131.41" cy="147.16" r="11.23"/><circle class="cls-17" cx="131.41" cy="147.16" r="8.45"/><circle cx="133" cy="153.6" r="0.89"/><circle cx="137.09" cy="150.59" r="0.89"/><circle cx="137.85" cy="145.57" r="0.89"/><circle cx="134.83" cy="141.49" r="0.89"/><circle cx="129.82" cy="140.73" r="0.89"/><circle cx="125.73" cy="143.74" r="0.89"/><circle cx="124.98" cy="148.76" r="0.89"/><circle cx="127.99" cy="152.84" r="0.89"/><circle class="cls-18" cx="131.41" cy="147.16" r="5.46"/><path class="cls-19" d="M168.4,137S68.72,170.12,50.54,168.68s-27.14-8.61-27.11-22.37,23.29-10.77,30.37-15,18.81-20,22-26.08,45.66,16.45,57.31,15.48,24.16-3.44,31.39-9.61S178.78,133.62,168.4,137Z"/><g class="cls-20"><path class="cls-21" d="M61,109.55l56.72,18.08a48.27,48.27,0,0,0,27.26.59l39.13-10.63L160.68,78.87l-83.77,14Z"/><circle class="cls-22" cx="69.88" cy="147.68" r="6.04"/><circle class="cls-22" cx="82.55" cy="132.18" r="3.47"/><circle class="cls-22" cx="70.7" cy="125.71" r="3.47"/><circle class="cls-22" cx="50.11" cy="151.07" r="6.04"/><circle class="cls-22" cx="32.15" cy="149.68" r="6.04"/><path class="cls-23" d="M13.28,142.82s20.36,12.61,41.34,7.42S168.75,122,175.19,114.78s3.6,24.28,3.6,24.28L28.59,177.13,17.21,156.29Z"/><path class="cls-24" d="M17.6,153.78s21.92,13.23,48,6.77,113.48-30.89,113.48-30.89l-1.73,12.46L53.14,176.67l-21.09-6.61Z"/><circle class="cls-22" cx="58.67" cy="140.38" r="2.2"/><circle class="cls-22" cx="51.93" cy="133.89" r="2.2"/><circle class="cls-22" cx="45.38" cy="139.62" r="2.2"/><circle class="cls-22" cx="35.79" cy="137.42" r="2.2"/></g><path class="cls-15" d="M168.4,137S68.72,170.12,50.54,168.68s-27.14-8.61-27.11-22.37,23.29-10.77,30.37-15,18.81-20,22-26.08,45.66,16.45,57.31,15.48,24.16-3.44,31.39-9.61S178.78,133.62,168.4,137Z"/><path class="cls-25" d="M122.36,84.89h2.56a2.84,2.84,0,0,1,2.84,2.84v36.1a0,0,0,0,1,0,0h-8.24a0,0,0,0,1,0,0V87.73a2.84,2.84,0,0,1,2.84-2.84Z" transform="translate(71.67 -48.87) rotate(31.1)"/><circle cx="114.2" cy="121.04" r="6.86"/><circle class="cls-26" cx="114.2" cy="121.04" r="5.24"/><path id="OK" class="cls-27" d="M197.45,98.72A98.36,98.36,0,0,1,170,167.06l0,0c-.52.54-1,1.06-1.56,1.59-7,3.89-35.47,6.82-69.59,6.82-34.64,0-63.51-3-69.89-7l-1.23-1.25A98.72,98.72,0,1,1,197.45,98.72Z"/><path class="cls-28" d="M145.55,32.27A99,99,0,0,1,180.94,103"/><path class="cls-27" d="M168.28,28.66A99.8,99.8,0,0,1,180.44,43.3"/><g class="cls-29"><path class="cls-30" d="M27.19,64.76h0c-1.59-1.62-4.75-1.08-6.67,1.4a50.92,50.92,0,0,0,0,62.31c1.92,2.49,5.08,3,6.67,1.4h0c1.61-1.62,1.41-4.43-.14-6.45a42.67,42.67,0,0,1,0-52.21C28.6,69.19,28.8,66.38,27.19,64.76Z"/></g><ellipse class="cls-31" cx="98.53" cy="62.77" rx="47.02" ry="7.87"/></g></g></svg>