<svg width="30" height="24" viewBox="0 0 30 24" fill="none" xmlns="http://www.w3.org/2000/svg">
<path d="M14.5858 0.201169C12.9767 1.71493 11.8757 3.73328 11.4522 5.83572C11.1981 6.7608 11.0287 7.68588 10.944 8.61095C8.14915 6.25621 3.91449 6.6767 1.54308 9.45193C-0.82833 12.2272 -0.404864 16.4321 2.39001 18.7868C5.18489 21.1415 9.41955 20.721 11.791 17.9458C12.2144 17.4412 12.5532 16.9366 12.7226 16.432L14.5858 16.432L13.3154 17.7776C12.1297 18.955 12.1297 20.8892 13.3154 22.1507C14.5011 23.3281 16.3644 23.4122 17.5501 22.2348L22.1235 18.3663C23.3092 18.1981 24.4102 17.7776 25.4266 17.1889C26.1888 16.7684 26.951 16.1798 27.5439 15.5911L29.1531 15.5911C29.6612 15.5911 30 15.2547 30 14.7501L30 3.31279C30 2.8923 29.5765 2.47181 29.1531 2.47181L26.951 2.47181C25.0031 0.873952 22.547 0.0329733 20.0909 0.0329734L15.1787 0.0329736C14.8399 -0.0511252 14.6705 0.0329736 14.5858 0.201169ZM6.62467 18.7027C3.8298 18.7027 1.62777 16.4321 1.71247 13.6568C1.71247 10.8816 3.99918 8.69505 6.79406 8.77915C8.31854 8.77915 9.67363 9.45193 10.6053 10.6293L6.37059 10.6293C5.63662 10.6722 4.94699 10.9924 4.44307 11.524C3.93916 12.0556 3.65914 12.7585 3.66041 13.4886C3.57572 15.0024 4.84612 16.348 6.37059 16.348L10.7746 16.348C9.92771 17.7776 8.31854 18.6186 6.62467 18.7027ZM20.0062 1.63083C22.2082 1.54673 24.3256 2.30361 26.0194 3.73328C26.1888 3.90147 26.3582 4.06967 26.6123 4.06967L28.3908 4.06967L28.3908 13.825L27.2051 13.825C26.951 13.825 26.697 13.9932 26.5276 14.1614C26.0194 14.7501 25.4266 15.2547 24.6643 15.6752C23.8174 16.1798 22.8011 16.5161 21.7848 16.6843C21.6154 16.6843 21.446 16.7684 21.2766 16.8525L16.4491 20.8892C16.195 21.1415 15.8562 21.3097 15.4328 21.3097C15.094 21.3097 14.6705 21.1415 14.4164 20.8892C13.9083 20.3005 13.9083 19.4596 14.4164 18.8709L16.8726 16.432L19.4133 16.432L18.5664 14.8342L6.37059 14.8342C5.77774 14.7501 5.26958 14.2455 5.35427 13.5727C5.35427 12.984 5.77774 12.3954 6.37059 12.3954L16.1103 12.3954L16.4491 10.7134L12.5532 10.7134C12.4685 10.6293 12.4685 10.5452 12.3838 10.4611C12.3838 9.87242 12.4685 9.28374 12.5532 8.69505L16.8726 8.69505L17.1266 7.34948L12.7226 7.34948L12.9767 6.34031C13.0614 5.91982 13.2307 5.49933 13.4001 5.07884L17.6348 5.07884L17.8889 3.73328L13.993 3.73328C14.3318 2.9764 14.8399 2.30361 15.4328 1.71493L20.0062 1.63083Z" fill="black"/>
</svg>
