<svg xmlns="http://www.w3.org/2000/svg" viewBox="0 0 114.37 114.49"><defs><style>.cls-1{font-size:22px;font-family:RocGrotesk-Bold, Roc Grotesk;font-weight:700;}</style></defs><g id="Layer_2" data-name="Layer 2"><g id="carwash"><text class="cls-1" transform="translate(69.01 19.92) rotate(22.49)">-</text><text class="cls-1" transform="translate(74.65 22.27) rotate(30.33)"> </text><text class="cls-1" transform="translate(78.93 23.46) rotate(46.71)">M</text><text class="cls-1" transform="translate(91.03 36.9) rotate(68.08)">a</text><text class="cls-1" transform="translate(95.53 47.47) rotate(85.6)">k</text><text class="cls-1" transform="translate(96.61 59.08) rotate(101.61)">e</text><text class="cls-1" transform="translate(94.43 70.27) rotate(118.04)">r</text><text class="cls-1" transform="translate(88.89 80.08) rotate(129.49)"> </text><text class="cls-1" transform="matrix(-0.77, 0.64, -0.64, -0.77, 86.37, 83.72)">F</text><text class="cls-1" transform="translate(78.87 90.25) rotate(155.72)">a</text><text class="cls-1" transform="translate(68.06 94.8) rotate(167.67)">i</text><text class="cls-1" transform="translate(63.74 96.15) rotate(179.07)">r</text><text class="cls-1" transform="translate(52.67 96.49) rotate(-164.5)">e</text><text class="cls-1" transform="translate(41.54 93.09) rotate(-152.7)"> </text><text class="cls-1" transform="translate(37.36 91.79) rotate(-138.67)">G</text><text class="cls-1" transform="translate(26.34 81.95) rotate(-119.77)">e</text><text class="cls-1" transform="translate(20.48 72.16) rotate(-102.33)">n</text><text class="cls-1" transform="translate(17.97 59.93) rotate(-87.28)">t</text><text class="cls-1" transform="translate(18.5 51.38) rotate(-77.72)"> </text><text class="cls-1" transform="translate(19.39 46.88) rotate(-69.8)">-</text><text class="cls-1" transform="translate(21.52 41.14) rotate(-61.92)"> </text><text class="cls-1" transform="matrix(0.65, -0.76, 0.76, 0.65, 23.13, 37.04)">2</text><text class="cls-1" transform="translate(30.98 27.57) rotate(-31.8)">0</text><text class="cls-1" transform="translate(41.34 20.95) rotate(-13.85)">2</text><text class="cls-1" transform="translate(53.22 17.87) rotate(3.9)">0</text><circle cx="57.16" cy="57.24" r="25.7"/></g></g></svg>