<svg xmlns="http://www.w3.org/2000/svg" xmlns:xlink="http://www.w3.org/1999/xlink" viewBox="0 0 152.68 154.72"><defs><style>.cls-1,.cls-8{fill:#efc2a1;}.cls-1,.cls-2,.cls-22,.cls-25,.cls-26,.cls-3,.cls-4,.cls-5{stroke:#000;stroke-miterlimit:10;stroke-width:2px;}.cls-2{fill:none;}.cls-14,.cls-3{fill:#ffb174;}.cls-17,.cls-4{fill:#ee5a5a;}.cls-23,.cls-5{fill:#edc474;}.cls-6{fill:#efc2a0;}.cls-7{font-size:10px;font-family:RocGrotesk-Bold, Roc Grotesk;font-weight:700;}.cls-9{clip-path:url(#clip-path);}.cls-10{fill:#f5dac7;}.cls-11{clip-path:url(#clip-path-2);}.cls-12{clip-path:url(#clip-path-3);}.cls-13{clip-path:url(#clip-path-4);}.cls-15{clip-path:url(#clip-path-5);}.cls-16{fill-opacity:0.3;}.cls-18{clip-path:url(#clip-path-6);}.cls-19{fill:#47c3db;}.cls-20{fill:#edaef1;}.cls-21{fill:#b31e6f;}.cls-22{fill:#772d2d;}.cls-24{clip-path:url(#clip-path-7);}.cls-25{fill:#472ff7;}.cls-26{fill:#e6e6e6;}.cls-27{fill:#754c24;fill-opacity:0.65;}</style><clipPath id="clip-path" transform="translate(6.45)"><path class="cls-1" d="M66.55,54.41v5.31H58.76V7.8a3.89,3.89,0,0,1,3.9-3.89h0A3.89,3.89,0,0,1,66.55,7.8V21.41"/></clipPath><clipPath id="clip-path-2" transform="translate(6.45)"><path class="cls-2" d="M63.77,32.52V25.14a3.91,3.91,0,0,1,3.9-3.9h2a3.91,3.91,0,0,1,3.9,3.9V48.22c0,6.66-4.83,6.32-8.32,6.32"/></clipPath><clipPath id="clip-path-3" transform="translate(6.45)"><path class="cls-1" d="M29.94,54.41v5.31h-7.8V7.8A3.9,3.9,0,0,1,26,3.91h0a3.9,3.9,0,0,1,3.9,3.89V21.41"/></clipPath><clipPath id="clip-path-4" transform="translate(6.45)"><path class="cls-2" d="M27.16,32.52V25.14a3.9,3.9,0,0,1,3.9-3.9h2A3.9,3.9,0,0,1,37,25.14V48.22c0,6.66-4.83,6.32-8.32,6.32"/></clipPath><clipPath id="clip-path-5" transform="translate(6.45)"><path class="cls-3" d="M128.61,150.44c3.37-.88,5.68-3.54,5.68-6.56v-3.12a1.13,1.13,0,0,0-1.21-1H2.85a1.13,1.13,0,0,0-1.2,1v9.73a1.13,1.13,0,0,0,1.2,1H120.16a33.3,33.3,0,0,0,8.45-1.08Z"/></clipPath><clipPath id="clip-path-6" transform="translate(6.45)"><path class="cls-4" d="M133.08,139.73c1.81-8.57-4.55-9.52-7.38-9.52s-16.63-5.67-21.33-7.41c-1.88,2.68-7.25,4-11,2.41S43.5,95.64,43.5,95.64,27.07,107.49,21,107,12.88,97,9.21,95.85s-5.58,1.76-7.56,15.31,1.2,28.57,1.2,28.57Z"/></clipPath><clipPath id="clip-path-7" transform="translate(6.45)"><path class="cls-5" d="M43.5,95.64s46.1,28,49.86,29.57,9.13.27,11-2.41c0,0-21.45-13.2-24.73-15.87S57.74,87.1,53.36,86.73,42.64,86.78,43.5,95.64Z"/></clipPath></defs><g id="Layer_2" data-name="Layer 2"><g id="_6_-_Zolen" data-name="6 - Zolen"><path class="cls-1" d="M75.11,7h0a3.9,3.9,0,0,1,3.9,3.9V29.72a3.69,3.69,0,0,1-3.69,3.69H71.43a.22.22,0,0,1-.22-.22V10.87A3.9,3.9,0,0,1,75.11,7Z"/><path class="cls-1" d="M72.11,1h0A3.9,3.9,0,0,1,76,4.9V27.22a.22.22,0,0,1-.22.22H68.43a.22.22,0,0,1-.22-.22V4.9A3.9,3.9,0,0,1,72.11,1Z"/><polygon class="cls-6" points="79.01 53.19 71.26 54.41 71.26 22.15 79.01 22.15 79.01 53.19"/><text class="cls-7" transform="translate(46.2 120.2)">OK</text><path class="cls-8" d="M66.55,54.41v5.31H58.76V7.8a3.89,3.89,0,0,1,3.9-3.89h0A3.89,3.89,0,0,1,66.55,7.8V21.41" transform="translate(6.45)"/><g class="cls-9"><path class="cls-10" d="M63.39,1.71s2,9.19-8.46,9.38,3.83-8.92,3.83-8.92Z" transform="translate(6.45)"/></g><path class="cls-2" d="M66.55,54.41v5.31H58.76V7.8a3.89,3.89,0,0,1,3.9-3.89h0A3.89,3.89,0,0,1,66.55,7.8V21.41" transform="translate(6.45)"/><g class="cls-11"><path class="cls-10" d="M66,22.27s.61,3.06,2.63,3.06,2.64-3.06,2.64-3.06l-2.64-1Z" transform="translate(6.45)"/></g><path class="cls-2" d="M63.77,32.52V25.14a3.91,3.91,0,0,1,3.9-3.9h2a3.91,3.91,0,0,1,3.9,3.9V48.22c0,6.66-4.83,6.32-8.32,6.32" transform="translate(6.45)"/><path class="cls-1" d="M38.49,7h0a3.9,3.9,0,0,1,3.9,3.9V29.72a3.69,3.69,0,0,1-3.69,3.69H34.81a.22.22,0,0,1-.22-.22V10.87A3.9,3.9,0,0,1,38.49,7Z"/><path class="cls-1" d="M35.49,1h0a3.9,3.9,0,0,1,3.9,3.9V27.22a.22.22,0,0,1-.22.22H31.81a.22.22,0,0,1-.22-.22V4.9A3.9,3.9,0,0,1,35.49,1Z"/><polygon class="cls-6" points="42.39 53.19 34.65 54.41 34.65 22.15 42.39 22.15 42.39 53.19"/><path class="cls-8" d="M29.94,54.41v5.31h-7.8V7.8A3.9,3.9,0,0,1,26,3.91h0a3.9,3.9,0,0,1,3.9,3.89V21.41" transform="translate(6.45)"/><g class="cls-12"><path class="cls-10" d="M26.78,1.71s2,9.19-8.47,9.38,3.83-8.92,3.83-8.92Z" transform="translate(6.45)"/></g><path class="cls-2" d="M29.94,54.41v5.31h-7.8V7.8A3.9,3.9,0,0,1,26,3.91h0a3.9,3.9,0,0,1,3.9,3.89V21.41" transform="translate(6.45)"/><g class="cls-13"><path class="cls-10" d="M29.42,22.27s.61,3.06,2.64,3.06,2.63-3.06,2.63-3.06l-2.63-1Z" transform="translate(6.45)"/></g><path class="cls-2" d="M27.16,32.52V25.14a3.9,3.9,0,0,1,3.9-3.9h2A3.9,3.9,0,0,1,37,25.14V48.22c0,6.66-4.83,6.32-8.32,6.32" transform="translate(6.45)"/><path class="cls-14" d="M128.61,150.44c3.37-.88,5.68-3.54,5.68-6.56v-3.12a1.13,1.13,0,0,0-1.21-1H2.85a1.13,1.13,0,0,0-1.2,1v9.73a1.13,1.13,0,0,0,1.2,1H120.16a33.3,33.3,0,0,0,8.45-1.08Z" transform="translate(6.45)"/><g class="cls-15"><path class="cls-16" d="M.74,146.35H116.51a75.36,75.36,0,0,0,15.13-1.48c6.3-1.3,13.32-3.64,14.59-7.7l-15.45,17.55L1.48,153.53Z" transform="translate(6.45)"/></g><path class="cls-2" d="M128.61,150.44c3.37-.88,5.68-3.54,5.68-6.56v-3.12a1.13,1.13,0,0,0-1.21-1H2.85a1.13,1.13,0,0,0-1.2,1v9.73a1.13,1.13,0,0,0,1.2,1H120.16a33.3,33.3,0,0,0,8.45-1.08Z" transform="translate(6.45)"/><path class="cls-17" d="M133.08,139.73c1.81-8.57-4.55-9.52-7.38-9.52s-16.63-5.67-21.33-7.41c-1.88,2.68-7.25,4-11,2.41S43.5,95.64,43.5,95.64,27.07,107.49,21,107,12.88,97,9.21,95.85s-5.58,1.76-7.56,15.31,1.2,28.57,1.2,28.57Z" transform="translate(6.45)"/><g class="cls-18"><polygon class="cls-19" points="30.55 96.94 1.15 145.63 0 85.12 30.55 96.94"/><polygon class="cls-20" points="70.12 93.66 29.56 153.11 2.46 132.74 27.1 97.11 70.12 93.66"/><polygon class="cls-21" points="90.49 104 65.69 147.19 29.72 145.63 63.23 90.05 90.49 104"/><path class="cls-22" d="M121.74,122.72s-10.94,27.22,18.42,17" transform="translate(6.45)"/></g><path class="cls-2" d="M133.08,139.73c1.81-8.57-4.55-9.52-7.38-9.52s-16.63-5.67-21.33-7.41c-1.88,2.68-7.25,4-11,2.41S43.5,95.64,43.5,95.64,27.07,107.49,21,107,12.88,97,9.21,95.85s-5.58,1.76-7.56,15.31,1.2,28.57,1.2,28.57Z" transform="translate(6.45)"/><path class="cls-23" d="M43.5,95.64s46.1,28,49.86,29.57,9.13.27,11-2.41c0,0-21.45-13.2-24.73-15.87S57.74,87.1,53.36,86.73,42.64,86.78,43.5,95.64Z" transform="translate(6.45)"/><g class="cls-24"><path class="cls-25" d="M34.45,95.64s9.16,4.72,22.19-4.26.27-10.7.27-10.7L38.4,87.33Z" transform="translate(6.45)"/></g><path class="cls-2" d="M43.5,95.64s46.1,28,49.86,29.57,9.13.27,11-2.41c0,0-21.45-13.2-24.73-15.87S57.74,87.1,53.36,86.73,42.64,86.78,43.5,95.64Z" transform="translate(6.45)"/><rect class="cls-26" x="64.8" y="101.06" width="16.25" height="5.05" rx="2.53" transform="translate(-25.08 31.92) rotate(-20.4)"/><rect class="cls-26" x="56.22" y="96.06" width="16.25" height="5.05" rx="2.53" transform="translate(-23.88 28.61) rotate(-20.4)"/><path class="cls-27" d="M102.89,147.88c4.27.43,12.8,1.32,15.3.88s3-3.06.76-3.13-3.14-2-5.34-2.77a7.25,7.25,0,0,0-5.52.5,10.34,10.34,0,0,1-5.64,3C101.15,146.6,101.63,147.75,102.89,147.88Z" transform="translate(6.45)"/><path class="cls-27" d="M72.54,146.4c1.37,1.81,4,1.24,5.1-.74a1.2,1.2,0,0,1,.86-.56c2.22-.48,4.1-2.22,1.94-2.43A21.36,21.36,0,0,0,72.17,144C71.52,144.32,71.76,145.36,72.54,146.4Z" transform="translate(6.45)"/><path class="cls-27" d="M8.31,136.53c-4.65,1.45-4.7,7.2-1.19,9.57a23.24,23.24,0,0,0,5.64.24,4.23,4.23,0,0,0,2.82-6.84l-.58-.72A6.26,6.26,0,0,0,8.31,136.53Z" transform="translate(6.45)"/><line class="cls-2" x1="80.12" y1="123.56" x2="95.57" y2="132.98"/><line class="cls-2" x1="84" y1="121.73" x2="80.6" y2="127.29"/><line class="cls-2" x1="86.85" y1="123.47" x2="83.46" y2="129.04"/><line class="cls-2" x1="89.71" y1="125.21" x2="86.32" y2="130.78"/><line class="cls-2" x1="92.57" y1="126.96" x2="89.18" y2="132.52"/><line class="cls-2" x1="95.43" y1="128.7" x2="92.04" y2="134.26"/><path class="cls-26" d="M95,115.05a2.52,2.52,0,0,0,1.38-3.49,2.62,2.62,0,0,0-3.28-1.2l-26.2,9.75A43.1,43.1,0,0,1,42,121.82c-13.3-3.16-12-10-12-10V59.72h-7.8V112c0,10.93,9.42,15,18.84,16.25a54.15,54.15,0,0,0,25.9-3Z" transform="translate(6.45)"/><path class="cls-26" d="M94.81,95.12,68.49,69.06c-1.44-1.44-1.94-4.53-1.94-6.56V59.72H58.76a16.61,16.61,0,0,0,4.93,11.82L91.27,98.86a2.44,2.44,0,0,1-.84,4L78,107.62l-3.42,1.27a2.53,2.53,0,1,0,1.76,4.74l10.5-3.9h0l5.25-2A7.68,7.68,0,0,0,94.81,95.12Z" transform="translate(6.45)"/></g></g></svg>