<svg xmlns="http://www.w3.org/2000/svg" xmlns:xlink="http://www.w3.org/1999/xlink" viewBox="0 0 112.08 160.43"><defs><style>.cls-1,.cls-3,.cls-9{fill:#47c3db;}.cls-1,.cls-2,.cls-7,.cls-8{stroke:#000;stroke-miterlimit:10;stroke-width:2px;}.cls-2{fill:none;}.cls-4{clip-path:url(#clip-path);}.cls-5,.cls-7{fill:#2e6cde;}.cls-6{opacity:0.3;}.cls-8{fill:#5443db;}.cls-9{font-size:12px;font-family:MyriadPro-Regular, Myriad Pro;}</style><clipPath id="clip-path"><rect class="cls-1" x="7.79" y="57.04" width="96.49" height="102.39" rx="10.07"/></clipPath></defs><g id="Layer_2" data-name="Layer 2"><g id="Layer_1-2" data-name="Layer 1"><rect class="cls-2" x="12.79" y="7.39" width="86.49" height="64.72" rx="22.38"/><rect class="cls-3" x="7.79" y="57.04" width="96.49" height="102.39" rx="10.07"/><g class="cls-4"><g id="verf"><rect class="cls-5" x="20.89" y="48.66" width="13.44" height="41.19" rx="6.72"/><rect class="cls-5" x="32.38" y="46" width="19.11" height="41.19" rx="8.01" transform="translate(108.53 24.65) rotate(90)"/><rect class="cls-3" x="34.33" y="67.92" width="10.57" height="30.39" rx="5.28"/><rect class="cls-5" x="44.9" y="47.92" width="20.74" height="55.97" rx="10.37"/></g><path class="cls-6" d="M7.79,142.36V47.19h96.5V72.85H41.23A17.43,17.43,0,0,0,23.79,90.28v69.15h-16Z"/></g><rect class="cls-2" x="7.79" y="57.04" width="96.49" height="102.39" rx="10.07"/><rect class="cls-7" x="1" y="43.27" width="110.08" height="21.84" rx="7.19"/><rect class="cls-8" x="38.88" y="1" width="34.32" height="12.78"/><text class="cls-9" transform="translate(64.38 137.29)">ok</text></g></g></svg>