<svg xmlns="http://www.w3.org/2000/svg" xmlns:xlink="http://www.w3.org/1999/xlink" viewBox="0 0 139.45 89.98"><defs><style>.cls-1,.cls-6{fill:#5443db;}.cls-1,.cls-2,.cls-4,.cls-5{stroke:#000;stroke-miterlimit:10;stroke-width:2px;}.cls-2{fill:#2e6cde;}.cls-3{fill:#181918;}.cls-4{fill:none;}.cls-5{fill:#47c3db;}.cls-7{clip-path:url(#clip-path);}.cls-8{fill:#fff;}.cls-9{clip-path:url(#clip-path-2);}</style><clipPath id="clip-path"><circle class="cls-1" cx="44.99" cy="44.99" r="16.79"/></clipPath><clipPath id="clip-path-2"><circle class="cls-1" cx="94.46" cy="44.99" r="16.79"/></clipPath></defs><g id="Layer_2" data-name="Layer 2"><g id="Layer_1-2" data-name="Layer 1"><circle class="cls-2" cx="44.99" cy="44.99" r="43.99"/><circle class="cls-3" cx="44.99" cy="44.99" r="35.99"/><circle class="cls-4" cx="44.99" cy="44.99" r="35.99"/><circle class="cls-5" cx="44.99" cy="44.99" r="27.12"/><circle class="cls-6" cx="44.99" cy="44.99" r="16.79"/><g class="cls-7"><circle class="cls-8" cx="48.99" cy="44.99" r="14.76"/></g><circle class="cls-4" cx="44.99" cy="44.99" r="16.79"/><circle class="cls-5" cx="67.28" cy="67.28" r="3.57"/><circle class="cls-5" cx="44.99" cy="76.26" r="3.57"/><circle class="cls-5" cx="76.51" cy="44.99" r="3.57"/><circle class="cls-5" cx="67.28" cy="22.7" r="3.57"/><circle class="cls-5" cx="44.99" cy="13.47" r="3.57"/><circle class="cls-5" cx="22.7" cy="22.7" r="3.57"/><circle class="cls-5" cx="13.47" cy="44.99" r="3.57"/><circle class="cls-5" cx="22.7" cy="67.28" r="3.57"/><circle class="cls-2" cx="94.46" cy="44.99" r="43.99"/><circle class="cls-3" cx="94.46" cy="44.99" r="35.99"/><circle class="cls-4" cx="94.46" cy="44.99" r="35.99"/><circle class="cls-5" cx="94.46" cy="44.99" r="27.12"/><circle class="cls-6" cx="94.46" cy="44.99" r="16.79"/><g class="cls-9"><circle class="cls-8" cx="98.46" cy="44.99" r="14.76"/></g><circle class="cls-4" cx="94.46" cy="44.99" r="16.79"/><circle class="cls-5" cx="116.75" cy="67.28" r="3.57"/><circle class="cls-5" cx="94.46" cy="76.26" r="3.57"/><circle class="cls-5" cx="125.98" cy="44.99" r="3.57"/><circle class="cls-5" cx="116.75" cy="22.7" r="3.57"/><circle class="cls-5" cx="94.46" cy="13.47" r="3.57"/><circle class="cls-5" cx="72.17" cy="22.7" r="3.57"/><circle class="cls-5" cx="62.93" cy="44.99" r="3.57"/><circle class="cls-5" cx="72.17" cy="67.28" r="3.57"/></g></g></svg>