<svg xmlns="http://www.w3.org/2000/svg" xmlns:xlink="http://www.w3.org/1999/xlink" viewBox="0 0 148.03 204.74"><defs><style>.cls-1,.cls-2{fill:#5443db;}.cls-1,.cls-4,.cls-5,.cls-6,.cls-7{stroke:#000;stroke-miterlimit:10;stroke-width:2px;}.cls-3{clip-path:url(#clip-path);}.cls-4{opacity:0.3;}.cls-5{fill:none;}.cls-6{fill:#47c3db;}.cls-7{fill:#2e6cde;}.cls-8{clip-path:url(#clip-path-2);}</style><clipPath id="clip-path"><path class="cls-1" d="M1,71.74a38.57,38.57,0,0,0,.56,7C3.22,88.6,8,119.24,7.48,139.8c-.65,24.82-.86,62.17,24.39,62.39S59.72,161,54.76,127.28c-4.14-28.07,2.51-41.14,4.85-44.72a45.93,45.93,0,0,0,3.29-5.85,68.18,68.18,0,0,0,2.87-49C62.12,16.27,57.87,9.49,54,5.48a15.14,15.14,0,0,0-18.76-2.2C23.73,10.3,1.64,29.29,1,71.74Z"/></clipPath><clipPath id="clip-path-2"><path class="cls-1" d="M147,71.74a38.57,38.57,0,0,1-.56,7c-1.66,9.91-6.45,40.55-5.92,61.11.65,24.82.87,62.17-24.39,62.39S88.31,161,93.28,127.28c4.13-28.07-2.52-41.14-4.86-44.72a44.67,44.67,0,0,1-3.28-5.85,68.08,68.08,0,0,1-2.87-49C85.91,16.27,90.16,9.49,94.05,5.48a15.14,15.14,0,0,1,18.76-2.2C124.3,10.3,146.39,29.29,147,71.74Z"/></clipPath></defs><g id="Layer_2" data-name="Layer 2"><g id="soles"><path class="cls-2" d="M1,71.74a38.57,38.57,0,0,0,.56,7C3.22,88.6,8,119.24,7.48,139.8c-.65,24.82-.86,62.17,24.39,62.39S59.72,161,54.76,127.28c-4.14-28.07,2.51-41.14,4.85-44.72a45.93,45.93,0,0,0,3.29-5.85,68.18,68.18,0,0,0,2.87-49C62.12,16.27,57.87,9.49,54,5.48a15.14,15.14,0,0,0-18.76-2.2C23.73,10.3,1.64,29.29,1,71.74Z"/><g class="cls-3"><path class="cls-4" d="M26.47,7.68C10.83,15.55,9.77,65.15,11.35,83.76c1.42,16.59,3.27,34.77,2.38,48.15s.48,70.28,18.14,70.28,6.32,1.55,6.32,1.55H4.84L1.11,68.25l2.7-47S35.22,3.28,26.47,7.68Z"/></g><path class="cls-5" d="M1,71.74a38.57,38.57,0,0,0,.56,7C3.22,88.6,8,119.24,7.48,139.8c-.65,24.82-.86,62.17,24.39,62.39S59.72,161,54.76,127.28c-4.14-28.07,2.51-41.14,4.85-44.72a45.93,45.93,0,0,0,3.29-5.85,68.18,68.18,0,0,0,2.87-49C62.12,16.27,57.87,9.49,54,5.48a15.14,15.14,0,0,0-18.76-2.2C23.73,10.3,1.64,29.29,1,71.74Z"/><path class="cls-6" d="M22.44,45A59,59,0,0,0,20.56,51,18.74,18.74,0,0,0,32.43,73.37c5.54,1.89,11.53.9,15.36-8.56,1.34-3.31,2.54-6.62,3.53-9.84C57.07,36.17,29.3,26.55,22.44,45Z"/><ellipse class="cls-7" cx="32.49" cy="163.37" rx="14.25" ry="17.13"/><path class="cls-2" d="M147,71.74a38.57,38.57,0,0,1-.56,7c-1.66,9.91-6.45,40.55-5.92,61.11.65,24.82.87,62.17-24.39,62.39S88.31,161,93.28,127.28c4.13-28.07-2.52-41.14-4.86-44.72a44.67,44.67,0,0,1-3.28-5.85,68.08,68.08,0,0,1-2.87-49C85.91,16.27,90.16,9.49,94.05,5.48a15.14,15.14,0,0,1,18.76-2.2C124.3,10.3,146.39,29.29,147,71.74Z"/><g class="cls-8"><path class="cls-4" d="M121.56,7.68c15.64,7.87,16.7,57.47,15.12,76.08-1.42,16.59-3.27,34.77-2.38,48.15s-.48,70.28-18.14,70.28-6.31,1.55-6.31,1.55h33.34l3.73-135.49-2.7-47S112.81,3.28,121.56,7.68Z"/></g><path class="cls-5" d="M147,71.74a38.57,38.57,0,0,1-.56,7c-1.66,9.91-6.45,40.55-5.92,61.11.65,24.82.87,62.17-24.39,62.39S88.31,161,93.28,127.28c4.13-28.07-2.52-41.14-4.86-44.72a44.67,44.67,0,0,1-3.28-5.85,68.08,68.08,0,0,1-2.87-49C85.91,16.27,90.16,9.49,94.05,5.48a15.14,15.14,0,0,1,18.76-2.2C124.3,10.3,146.39,29.29,147,71.74Z"/><path class="cls-6" d="M125.59,45A59,59,0,0,1,127.47,51,18.74,18.74,0,0,1,115.6,73.37c-5.54,1.89-11.53.9-15.36-8.56C98.9,61.5,97.7,58.19,96.72,55,91,36.17,118.73,26.55,125.59,45Z"/><ellipse class="cls-7" cx="115.54" cy="163.37" rx="14.25" ry="17.13"/></g></g></svg>