<svg xmlns="http://www.w3.org/2000/svg" xmlns:xlink="http://www.w3.org/1999/xlink" viewBox="0 0 225.15 87.9"><defs><style>.cls-1,.cls-2{fill:#3a6ed7;}.cls-1,.cls-4,.cls-5,.cls-6{stroke:#000;stroke-width:2px;}.cls-1,.cls-4,.cls-5,.cls-6,.cls-7{stroke-miterlimit:10;}.cls-3{clip-path:url(#clip-path);}.cls-4{fill:#6ac1d8;}.cls-5{fill:#413ced;}.cls-6,.cls-7{fill:none;}.cls-7{stroke:#fff;}.cls-8{clip-path:url(#clip-path-2);}</style><clipPath id="clip-path" transform="translate(10.38 7.72)"><path class="cls-1" d="M191.17,65.78S74.11,74.94,54.77,68.49,27.63,51.86,31.36,36.94s28.16-5.43,37-8.15S94.13,12.17,99.22,6.4s45.13,30.12,58,32.19,27.15,2.76,36.65-2S203.35,64.89,191.17,65.78Z"/></clipPath><clipPath id="clip-path-2" transform="translate(10.38 7.72)"><path class="cls-1" d="M161.72,67.09S44.66,76.25,25.32,69.8-1.83,53.18,1.91,38.25s28.16-5.43,37-8.15S64.68,13.48,69.77,7.71s45.12,30.12,58,32.19,27.14,2.76,36.64-2S173.89,66.2,161.72,67.09Z"/></clipPath></defs><g id="Layer_2" data-name="Layer 2"><g id="Layer_1-2" data-name="Layer 1"><path class="cls-2" d="M191.17,65.78S74.11,74.94,54.77,68.49,27.63,51.86,31.36,36.94s28.16-5.43,37-8.15S94.13,12.17,99.22,6.4s45.13,30.12,58,32.19,27.15,2.76,36.65-2S203.35,64.89,191.17,65.78Z" transform="translate(10.38 7.72)"/><g class="cls-3"><path class="cls-4" d="M82,7.14,138.69,42a53.71,53.71,0,0,0,29.41,8l45.32-1L198.41.61,103.75-6.7Z" transform="translate(10.38 7.72)"/><circle class="cls-5" cx="91.78" cy="58.62" r="6.75"/><circle class="cls-5" cx="109.69" cy="45.2" r="3.88"/><circle class="cls-5" cx="98.56" cy="35" r="3.88"/><circle class="cls-5" cx="69.42" cy="56.99" r="6.75"/><circle class="cls-5" cx="50.29" cy="50.65" r="6.75"/><path class="cls-1" d="M21.28,30.42S40,49.57,64.15,49.57s131.43,0,140.35-6.09-2.61,27.31-2.61,27.31l-173.21,1L21.93,46.09Z" transform="translate(10.38 7.72)"/><path class="cls-4" d="M23,43.48S43.26,63.72,73.29,63.72s131.43-3,131.43-3L199.5,73.73l-144,4.13L34.34,65Z" transform="translate(10.38 7.72)"/><circle class="cls-5" cx="81.56" cy="47.69" r="2.46"/><circle class="cls-5" cx="76" cy="38.83" r="2.46"/><circle class="cls-5" cx="67.35" cy="43.3" r="2.46"/><circle class="cls-5" cx="57.53" cy="38.33" r="2.46"/></g><path class="cls-6" d="M191.17,65.78S74.11,74.94,54.77,68.49,27.63,51.86,31.36,36.94s28.16-5.43,37-8.15S94.13,12.17,99.22,6.4s45.13,30.12,58,32.19,27.15,2.76,36.65-2S203.35,64.89,191.17,65.78Z" transform="translate(10.38 7.72)"/><path class="cls-5" d="M149.94-3.43h2.86A3.17,3.17,0,0,1,156-.26V40.09a0,0,0,0,1,0,0h-9.21a0,0,0,0,1,0,0V-.26a3.17,3.17,0,0,1,3.17-3.17Z" transform="translate(67.67 -93.95) rotate(45)"/><circle cx="147.02" cy="41.62" r="7.66"/><circle class="cls-7" cx="147.02" cy="41.62" r="5.86"/><path class="cls-2" d="M161.72,67.09S44.66,76.25,25.32,69.8-1.83,53.18,1.91,38.25s28.16-5.43,37-8.15S64.68,13.48,69.77,7.71s45.12,30.12,58,32.19,27.14,2.76,36.64-2S173.89,66.2,161.72,67.09Z" transform="translate(10.38 7.72)"/><g class="cls-8"><path class="cls-4" d="M52.54,8.45,109.23,43.3a53.91,53.91,0,0,0,29.42,8l45.32-1L169,1.92,74.3-5.39Z" transform="translate(10.38 7.72)"/><circle class="cls-5" cx="62.32" cy="59.93" r="6.75"/><circle class="cls-5" cx="80.23" cy="46.52" r="3.88"/><circle class="cls-5" cx="69.1" cy="36.31" r="3.88"/><circle class="cls-5" cx="39.96" cy="58.3" r="6.75"/><circle class="cls-5" cx="20.84" cy="51.96" r="6.75"/><path class="cls-1" d="M-8.17,31.74S10.54,50.89,34.69,50.89s131.43,0,140.36-6.1-2.62,27.31-2.62,27.31l-173.21,1L-7.52,47.4Z" transform="translate(10.38 7.72)"/><path class="cls-4" d="M-6.43,44.79S13.8,65,43.83,65,175.26,62,175.26,62L170,75,26,79.17,4.88,66.33Z" transform="translate(10.38 7.72)"/><circle class="cls-5" cx="52.11" cy="49" r="2.46"/><circle class="cls-5" cx="46.54" cy="40.14" r="2.46"/><circle class="cls-5" cx="37.9" cy="44.61" r="2.46"/><circle class="cls-5" cx="28.08" cy="39.65" r="2.46"/></g><path class="cls-6" d="M161.72,67.09S44.66,76.25,25.32,69.8-1.83,53.18,1.91,38.25s28.16-5.43,37-8.15S64.68,13.48,69.77,7.71s45.12,30.12,58,32.19,27.14,2.76,36.64-2S173.89,66.2,161.72,67.09Z" transform="translate(10.38 7.72)"/><path class="cls-5" d="M120.49-2.12h2.86a3.17,3.17,0,0,1,3.17,3.17V41.4a0,0,0,0,1,0,0h-9.21a0,0,0,0,1,0,0V1.05a3.17,3.17,0,0,1,3.17-3.17Z" transform="translate(59.97 -72.73) rotate(45)"/><circle cx="117.56" cy="42.93" r="7.66"/><circle class="cls-7" cx="117.56" cy="42.93" r="5.86"/></g></g></svg>