<svg width="257" height="255" viewBox="0 0 257 255" fill="none" xmlns="http://www.w3.org/2000/svg">
<circle cx="129" cy="15" r="13.5" stroke="black" stroke-width="3"/>
<circle cx="129" cy="15" r="8" fill="black"/>
<path d="M175.96 59.4158H81.0401V82.7755H175.96V59.4158Z" fill="#5443DB" stroke="black" stroke-width="2" stroke-miterlimit="10"/>
<path d="M175.96 71.0956C185.035 71.0956 193.738 74.6992 200.155 81.1138C206.572 87.5283 210.177 96.2283 210.177 105.3V110.538" stroke="black" stroke-width="2" stroke-miterlimit="10"/>
<path d="M201.014 103.219H219.426C223.314 103.219 227.042 104.763 229.791 107.51C232.54 110.258 234.084 113.985 234.084 117.872H186.355C186.355 113.985 187.9 110.258 190.649 107.51C193.398 104.763 197.126 103.219 201.014 103.219Z" fill="#3623B9" stroke="black" stroke-width="2" stroke-miterlimit="10"/>
<path d="M250.782 118.424C252.013 118.357 253.17 117.822 254.017 116.927C254.865 116.033 255.337 114.849 255.337 113.617C255.337 112.386 254.865 111.201 254.017 110.307C253.17 109.413 252.013 108.878 250.782 108.811C240.628 108.811 240.628 117.305 230.473 117.305C220.318 117.305 220.318 108.811 210.149 108.811C199.98 108.811 200.008 117.305 189.854 117.305C179.699 117.305 179.699 108.811 169.544 108.811C168.314 108.878 167.156 109.413 166.309 110.307C165.462 111.201 164.99 112.386 164.99 113.617C164.99 114.849 165.462 116.033 166.309 116.927C167.156 117.822 168.314 118.357 169.544 118.424C179.699 118.424 179.699 126.918 189.854 126.918C200.008 126.918 200.008 118.424 210.149 118.424C220.29 118.424 220.318 126.918 230.473 126.918C240.628 126.918 240.628 118.424 250.782 118.424Z" fill="#46C3DB" stroke="black" stroke-width="2" stroke-miterlimit="10"/>
<path d="M250.782 127.47C251.413 127.47 252.037 127.346 252.62 127.105C253.202 126.864 253.732 126.51 254.177 126.065C254.623 125.619 254.977 125.09 255.218 124.508C255.46 123.925 255.584 123.301 255.584 122.671C255.584 122.041 255.46 121.417 255.218 120.834C254.977 120.252 254.623 119.723 254.177 119.277C253.732 118.832 253.202 118.478 252.62 118.237C252.037 117.996 251.413 117.872 250.782 117.872C240.628 117.872 240.628 126.366 230.473 126.366C220.318 126.366 220.318 117.872 210.149 117.872C199.98 117.872 200.008 126.366 189.854 126.366C179.699 126.366 179.699 117.872 169.544 117.872C168.271 117.872 167.05 118.377 166.149 119.277C165.249 120.177 164.743 121.398 164.743 122.671C164.743 123.944 165.249 125.165 166.149 126.065C167.05 126.965 168.271 127.47 169.544 127.47C179.699 127.47 179.699 135.965 189.854 135.965C200.008 135.965 200.008 127.47 210.149 127.47C220.29 127.47 220.318 135.965 230.473 135.965C240.628 135.965 240.628 127.47 250.782 127.47Z" fill="#482FF7" stroke="black" stroke-width="2" stroke-miterlimit="10"/>
<path d="M250.782 136.517C252.056 136.517 253.277 136.011 254.177 135.111C255.078 134.211 255.584 132.99 255.584 131.718C255.584 130.445 255.078 129.224 254.177 128.324C253.277 127.424 252.056 126.918 250.782 126.918C240.628 126.918 240.628 135.413 230.473 135.413C220.318 135.413 220.318 126.918 210.149 126.918C199.98 126.918 200.008 135.413 189.854 135.413C179.699 135.413 179.699 126.918 169.544 126.918C168.271 126.918 167.05 127.424 166.149 128.324C165.249 129.224 164.743 130.445 164.743 131.718C164.743 132.99 165.249 134.211 166.149 135.111C167.05 136.011 168.271 136.517 169.544 136.517C179.699 136.517 179.699 145.011 189.854 145.011C200.008 145.011 200.008 136.517 210.149 136.517C220.29 136.517 220.318 145.011 230.473 145.011C240.628 145.011 240.628 136.517 250.782 136.517Z" fill="#2D6CDF" stroke="black" stroke-width="2" stroke-miterlimit="10"/>
<path d="M250.782 145.563C252.056 145.563 253.277 145.058 254.177 144.158C255.078 143.258 255.584 142.037 255.584 140.764C255.584 139.491 255.078 138.27 254.177 137.37C253.277 136.47 252.056 135.965 250.782 135.965C240.628 135.965 240.628 144.459 230.473 144.459C220.318 144.459 220.318 135.965 210.149 135.965C199.98 135.965 200.008 144.459 189.854 144.459C179.699 144.459 179.699 135.965 169.544 135.965C168.271 135.965 167.05 136.47 166.149 137.37C165.249 138.27 164.743 139.491 164.743 140.764C164.743 142.037 165.249 143.258 166.149 144.158C167.05 145.058 168.271 145.563 169.544 145.563C179.699 145.563 179.699 154.058 189.854 154.058C200.008 154.058 200.008 145.563 210.149 145.563C220.29 145.563 220.318 154.058 230.473 154.058C240.628 154.058 240.628 145.563 250.782 145.563Z" fill="#46C3DB"/>
<path d="M250.782 145.563C252.056 145.563 253.277 145.058 254.177 144.158C255.078 143.258 255.584 142.037 255.584 140.764C255.584 139.491 255.078 138.27 254.177 137.37C253.277 136.47 252.056 135.965 250.782 135.965C240.628 135.965 240.628 144.459 230.473 144.459C220.318 144.459 220.318 135.965 210.149 135.965C199.98 135.965 200.008 144.459 189.854 144.459C179.699 144.459 179.699 135.965 169.544 135.965C168.271 135.965 167.05 136.47 166.149 137.37C165.249 138.27 164.743 139.491 164.743 140.764C164.743 142.037 165.249 143.258 166.149 144.158C167.05 145.058 168.271 145.563 169.544 145.563C179.699 145.563 179.699 154.058 189.854 154.058C200.008 154.058 200.008 145.563 210.149 145.563C220.29 145.563 220.318 154.058 230.473 154.058C240.628 154.058 240.628 145.563 250.782 145.563" stroke="black" stroke-width="2" stroke-miterlimit="10"/>
<path d="M250.782 154.61C252.056 154.61 253.277 154.104 254.177 153.204C255.078 152.304 255.584 151.084 255.584 149.811C255.584 148.538 255.078 147.317 254.177 146.417C253.277 145.517 252.056 145.011 250.782 145.011C240.628 145.011 240.628 153.506 230.473 153.506C220.318 153.506 220.318 145.011 210.149 145.011C199.98 145.011 200.008 153.506 189.854 153.506C179.699 153.506 179.699 145.011 169.544 145.011C168.271 145.011 167.05 145.517 166.149 146.417C165.249 147.317 164.743 148.538 164.743 149.811C164.743 151.084 165.249 152.304 166.149 153.204C167.05 154.104 168.271 154.61 169.544 154.61C179.699 154.61 179.699 163.104 189.854 163.104C200.008 163.104 200.008 154.61 210.149 154.61C220.29 154.61 220.318 163.104 230.473 163.104C240.628 163.104 240.628 154.61 250.782 154.61Z" fill="#482FF7" stroke="black" stroke-width="2" stroke-miterlimit="10"/>
<path d="M250.782 163.657C252.056 163.657 253.277 163.151 254.177 162.251C255.078 161.351 255.584 160.13 255.584 158.857C255.584 157.584 255.078 156.364 254.177 155.464C253.277 154.564 252.056 154.058 250.782 154.058C240.628 154.058 240.628 162.552 230.473 162.552C220.318 162.552 220.318 154.058 210.149 154.058C199.98 154.058 200.008 162.552 189.854 162.552C179.699 162.552 179.699 154.058 169.544 154.058C168.271 154.058 167.05 154.564 166.149 155.464C165.249 156.364 164.743 157.584 164.743 158.857C164.743 160.13 165.249 161.351 166.149 162.251C167.05 163.151 168.271 163.657 169.544 163.657C179.699 163.657 179.699 172.151 189.854 172.151C200.008 172.151 200.008 163.657 210.149 163.657C220.29 163.657 220.318 172.151 230.473 172.151C240.628 172.151 240.628 163.657 250.782 163.657Z" fill="#2D6CDF" stroke="black" stroke-width="2" stroke-miterlimit="10"/>
<path d="M250.782 172.675C252.056 172.675 253.277 172.169 254.177 171.269C255.078 170.369 255.584 169.148 255.584 167.876C255.584 166.603 255.078 165.382 254.177 164.482C253.277 163.582 252.056 163.076 250.782 163.076C240.628 163.076 240.628 171.571 230.473 171.571C220.318 171.571 220.318 163.076 210.149 163.076C199.98 163.076 200.008 171.571 189.854 171.571C179.699 171.571 179.699 163.076 169.544 163.076C168.271 163.076 167.05 163.582 166.149 164.482C165.249 165.382 164.743 166.603 164.743 167.876C164.743 169.148 165.249 170.369 166.149 171.269C167.05 172.169 168.271 172.675 169.544 172.675C179.699 172.675 179.699 181.169 189.854 181.169C200.008 181.169 200.008 172.675 210.149 172.675C220.29 172.675 220.318 181.169 230.473 181.169C240.628 181.169 240.628 172.675 250.782 172.675Z" fill="#46C3DB" stroke="black" stroke-width="2" stroke-miterlimit="10"/>
<path d="M250.782 181.764C252.013 181.697 253.17 181.162 254.017 180.268C254.865 179.374 255.337 178.189 255.337 176.957C255.337 175.726 254.865 174.541 254.017 173.647C253.17 172.753 252.013 172.218 250.782 172.151C240.628 172.151 240.628 180.645 230.473 180.645C220.318 180.645 220.318 172.151 210.149 172.151C199.98 172.151 200.008 180.645 189.854 180.645C179.699 180.645 179.699 172.151 169.544 172.151C168.314 172.218 167.156 172.753 166.309 173.647C165.462 174.541 164.99 175.726 164.99 176.957C164.99 178.189 165.462 179.374 166.309 180.268C167.156 181.162 168.314 181.697 169.544 181.764C179.699 181.764 179.699 190.258 189.854 190.258C200.008 190.258 200.008 181.764 210.149 181.764C220.29 181.764 220.318 190.258 230.473 190.258C240.628 190.258 240.628 181.764 250.782 181.764Z" fill="#482FF7" stroke="black" stroke-width="2" stroke-miterlimit="10"/>
<path d="M250.782 190.811C252.013 190.744 253.17 190.208 254.017 189.314C254.865 188.42 255.337 187.236 255.337 186.004C255.337 184.773 254.865 183.588 254.017 182.694C253.17 181.8 252.013 181.264 250.782 181.198C240.628 181.198 240.628 189.692 230.473 189.692C220.318 189.692 220.318 181.198 210.149 181.198C199.98 181.198 200.008 189.692 189.854 189.692C179.699 189.692 179.699 181.198 169.544 181.198C168.314 181.264 167.156 181.8 166.309 182.694C165.462 183.588 164.99 184.773 164.99 186.004C164.99 187.236 165.462 188.42 166.309 189.314C167.156 190.208 168.314 190.744 169.544 190.811C179.699 190.811 179.699 199.305 189.854 199.305C200.008 199.305 200.008 190.811 210.149 190.811C220.29 190.811 220.318 199.305 230.473 199.305C240.628 199.305 240.628 190.811 250.782 190.811Z" fill="#2D6CDF" stroke="black" stroke-width="2" stroke-miterlimit="10"/>
<path d="M250.782 199.857C252.056 199.857 253.277 199.351 254.177 198.451C255.078 197.551 255.584 196.331 255.584 195.058C255.584 193.785 255.078 192.564 254.177 191.664C253.277 190.764 252.056 190.258 250.782 190.258C240.628 190.258 240.628 198.753 230.473 198.753C220.318 198.753 220.318 190.258 210.149 190.258C199.98 190.258 200.008 198.753 189.854 198.753C179.699 198.753 179.699 190.258 169.544 190.258C168.271 190.258 167.05 190.764 166.149 191.664C165.249 192.564 164.743 193.785 164.743 195.058C164.743 196.331 165.249 197.551 166.149 198.451C167.05 199.351 168.271 199.857 169.544 199.857C179.699 199.857 179.699 208.351 189.854 208.351C200.008 208.351 200.008 199.857 210.149 199.857C220.29 199.857 220.318 208.351 230.473 208.351C240.628 208.351 240.628 199.857 250.782 199.857Z" fill="#46C3DB" stroke="black" stroke-width="2" stroke-miterlimit="10"/>
<path d="M250.782 208.904C252.056 208.904 253.277 208.398 254.177 207.498C255.078 206.598 255.584 205.377 255.584 204.104C255.584 202.831 255.078 201.611 254.177 200.711C253.277 199.811 252.056 199.305 250.782 199.305C240.628 199.305 240.628 207.799 230.473 207.799C220.318 207.799 220.318 199.305 210.149 199.305C199.98 199.305 200.008 207.799 189.854 207.799C179.699 207.799 179.699 199.305 169.544 199.305C168.271 199.305 167.05 199.811 166.149 200.711C165.249 201.611 164.743 202.831 164.743 204.104C164.743 205.377 165.249 206.598 166.149 207.498C167.05 208.398 168.271 208.904 169.544 208.904C179.699 208.904 179.699 217.398 189.854 217.398C200.008 217.398 200.008 208.904 210.149 208.904C220.29 208.904 220.318 217.398 230.473 217.398C240.628 217.398 240.628 208.904 250.782 208.904Z" fill="#482FF7" stroke="black" stroke-width="2" stroke-miterlimit="10"/>
<path d="M250.782 217.978C252.056 217.978 253.277 217.473 254.177 216.573C255.078 215.673 255.584 214.452 255.584 213.179C255.584 211.906 255.078 210.686 254.177 209.785C253.277 208.885 252.056 208.38 250.782 208.38C240.628 208.38 240.628 216.874 230.473 216.874C220.318 216.874 220.318 208.38 210.149 208.38C199.98 208.38 200.008 216.874 189.854 216.874C179.699 216.874 179.699 208.38 169.544 208.38C168.271 208.38 167.05 208.885 166.149 209.785C165.249 210.686 164.743 211.906 164.743 213.179C164.743 214.452 165.249 215.673 166.149 216.573C167.05 217.473 168.271 217.978 169.544 217.978C179.699 217.978 179.699 226.473 189.854 226.473C200.008 226.473 200.008 217.978 210.149 217.978C220.29 217.978 220.318 226.473 230.473 226.473C240.628 226.473 240.628 217.978 250.782 217.978Z" fill="#2D6CDF" stroke="black" stroke-width="2" stroke-miterlimit="10"/>
<path d="M250.782 226.997C251.413 226.997 252.037 226.873 252.62 226.631C253.202 226.39 253.732 226.037 254.177 225.591C254.623 225.145 254.977 224.616 255.218 224.034C255.46 223.452 255.584 222.828 255.584 222.197C255.584 221.567 255.46 220.943 255.218 220.361C254.977 219.778 254.623 219.249 254.177 218.804C253.732 218.358 253.202 218.004 252.62 217.763C252.037 217.522 251.413 217.398 250.782 217.398C240.628 217.398 240.628 225.892 230.473 225.892C220.318 225.892 220.318 217.398 210.149 217.398C199.98 217.398 200.008 225.892 189.854 225.892C179.699 225.892 179.699 217.398 169.544 217.398C168.271 217.398 167.05 217.904 166.149 218.804C165.249 219.704 164.743 220.924 164.743 222.197C164.743 223.47 165.249 224.691 166.149 225.591C167.05 226.491 168.271 226.997 169.544 226.997C179.699 226.997 179.699 235.491 189.854 235.491C200.008 235.491 200.008 226.997 210.149 226.997C220.29 226.997 220.318 235.491 230.473 235.491C240.628 235.491 240.628 226.997 250.782 226.997Z" fill="#46C3DB" stroke="black" stroke-width="2" stroke-miterlimit="10"/>
<path d="M250.782 236.043C252.056 236.043 253.277 235.538 254.177 234.638C255.078 233.738 255.584 232.517 255.584 231.244C255.584 229.971 255.078 228.75 254.177 227.85C253.277 226.95 252.056 226.445 250.782 226.445C240.628 226.445 240.628 234.939 230.473 234.939C220.318 234.939 220.318 226.445 210.149 226.445C199.98 226.445 200.008 234.939 189.854 234.939C179.699 234.939 179.699 226.445 169.544 226.445C168.271 226.445 167.05 226.95 166.149 227.85C165.249 228.75 164.743 229.971 164.743 231.244C164.743 232.517 165.249 233.738 166.149 234.638C167.05 235.538 168.271 236.043 169.544 236.043C179.699 236.043 179.699 244.538 189.854 244.538C200.008 244.538 200.008 236.043 210.149 236.043C220.29 236.043 220.318 244.538 230.473 244.538C240.628 244.538 240.628 236.043 250.782 236.043Z" fill="#482FF7"/>
<path d="M250.782 236.043C252.056 236.043 253.277 235.538 254.177 234.638C255.078 233.738 255.584 232.517 255.584 231.244C255.584 229.971 255.078 228.75 254.177 227.85C253.277 226.95 252.056 226.445 250.782 226.445C240.628 226.445 240.628 234.939 230.473 234.939C220.318 234.939 220.318 226.445 210.149 226.445C199.98 226.445 200.008 234.939 189.854 234.939C179.699 234.939 179.699 226.445 169.544 226.445C168.271 226.445 167.05 226.95 166.149 227.85C165.249 228.75 164.743 229.971 164.743 231.244C164.743 232.517 165.249 233.738 166.149 234.638C167.05 235.538 168.271 236.043 169.544 236.043C179.699 236.043 179.699 244.538 189.854 244.538C200.008 244.538 200.008 236.043 210.149 236.043C220.29 236.043 220.318 244.538 230.473 244.538C240.628 244.538 240.628 236.043 250.782 236.043" stroke="black" stroke-width="2" stroke-miterlimit="10"/>
<path d="M250.782 245.09C252.056 245.09 253.277 244.584 254.177 243.684C255.078 242.784 255.584 241.563 255.584 240.291C255.584 239.018 255.078 237.797 254.177 236.897C253.277 235.997 252.056 235.491 250.782 235.491C240.628 235.491 240.628 243.986 230.473 243.986C220.318 243.986 220.318 235.491 210.149 235.491C199.98 235.491 200.008 243.986 189.854 243.986C179.699 243.986 179.699 235.491 169.544 235.491C168.271 235.491 167.05 235.997 166.149 236.897C165.249 237.797 164.743 239.018 164.743 240.291C164.743 241.563 165.249 242.784 166.149 243.684C167.05 244.584 168.271 245.09 169.544 245.09C179.699 245.09 179.699 253.584 189.854 253.584C200.008 253.584 200.008 245.09 210.149 245.09C220.29 245.09 220.318 253.584 230.473 253.584C240.628 253.584 240.628 245.09 250.782 245.09Z" fill="#2D6CDF" stroke="black" stroke-width="2" stroke-miterlimit="10"/>
<path d="M81.0401 71.0956C71.9651 71.0956 63.2617 74.6992 56.8446 81.1138C50.4276 87.5283 46.8226 96.2283 46.8226 105.3V110.538" stroke="black" stroke-width="2" stroke-miterlimit="10"/>
<path d="M70.6445 117.872H23.0005C23.0005 113.988 24.543 110.263 27.2889 107.515C30.0349 104.768 33.7597 103.222 37.645 103.219H56.0568C59.9322 103.237 63.6425 104.789 66.3762 107.535C69.1099 110.281 70.6446 113.998 70.6445 117.872Z" fill="#3623B9" stroke="black" stroke-width="2" stroke-miterlimit="10"/>
<path d="M6.21751 118.424C4.9874 118.357 3.82966 117.822 2.9825 116.927C2.13534 116.033 1.66318 114.849 1.66318 113.617C1.66318 112.386 2.13534 111.201 2.9825 110.307C3.82966 109.413 4.9874 108.878 6.21751 108.811C16.3723 108.811 16.3723 117.305 26.5271 117.305C36.6819 117.305 36.6819 108.811 46.8509 108.811C57.0198 108.811 56.9915 117.305 67.1463 117.305C77.3011 117.305 77.3011 108.811 87.4559 108.811C88.686 108.878 89.8438 109.413 90.6909 110.307C91.5381 111.201 92.0102 112.386 92.0102 113.617C92.0102 114.849 91.5381 116.033 90.6909 116.927C89.8438 117.822 88.686 118.357 87.4559 118.424C77.3011 118.424 77.3011 126.918 67.1463 126.918C56.9915 126.918 56.9915 118.424 46.8509 118.424C36.7102 118.424 36.6819 126.918 26.5271 126.918C16.3723 126.918 16.3723 118.424 6.21751 118.424Z" fill="#2D6CDF"/>
<path d="M6.21751 118.424C4.9874 118.357 3.82966 117.822 2.9825 116.927C2.13534 116.033 1.66318 114.849 1.66318 113.617C1.66318 112.386 2.13534 111.201 2.9825 110.307C3.82966 109.413 4.9874 108.878 6.21751 108.811V108.811C16.3723 108.811 16.3723 117.305 26.5271 117.305C36.6819 117.305 36.6819 108.811 46.8509 108.811C57.0198 108.811 56.9915 117.305 67.1463 117.305C77.3011 117.305 77.3011 108.811 87.4559 108.811C88.686 108.878 89.8438 109.413 90.6909 110.307C91.5381 111.201 92.0102 112.386 92.0102 113.617C92.0102 114.849 91.5381 116.033 90.6909 116.927C89.8438 117.822 88.686 118.357 87.4559 118.424C77.3011 118.424 77.3011 126.918 67.1463 126.918C56.9915 126.918 56.9915 118.424 46.8509 118.424C36.7102 118.424 36.6819 126.918 26.5271 126.918C16.3723 126.918 16.3723 118.424 6.21751 118.424" stroke="black" stroke-width="2" stroke-miterlimit="10"/>
<path d="M6.21751 127.47C4.94415 127.47 3.72294 126.965 2.82254 126.065C1.92213 125.165 1.41629 123.944 1.41629 122.671C1.41629 121.398 1.92213 120.177 2.82254 119.277C3.72294 118.377 4.94415 117.872 6.21751 117.872C16.3723 117.872 16.3723 126.366 26.5271 126.366C36.6819 126.366 36.6819 117.872 46.8509 117.872C57.0198 117.872 56.9915 126.366 67.1463 126.366C77.3011 126.366 77.3011 117.872 87.4559 117.872C88.7293 117.872 89.9505 118.377 90.8509 119.277C91.7513 120.177 92.2571 121.398 92.2571 122.671C92.2571 123.944 91.7513 125.165 90.8509 126.065C89.9505 126.965 88.7293 127.47 87.4559 127.47C77.3011 127.47 77.3011 135.965 67.1463 135.965C56.9915 135.965 56.9915 127.47 46.8509 127.47C36.7102 127.47 36.6819 135.965 26.5271 135.965C16.3723 135.965 16.3723 127.47 6.21751 127.47Z" fill="#46C3DB"/>
<path d="M6.21751 127.47C4.94415 127.47 3.72294 126.965 2.82254 126.065C1.92213 125.165 1.41629 123.944 1.41629 122.671C1.41629 121.398 1.92213 120.177 2.82254 119.277C3.72294 118.377 4.94415 117.872 6.21751 117.872V117.872C16.3723 117.872 16.3723 126.366 26.5271 126.366C36.6819 126.366 36.6819 117.872 46.8509 117.872C57.0198 117.872 56.9915 126.366 67.1463 126.366C77.3011 126.366 77.3011 117.872 87.4559 117.872C88.7293 117.872 89.9505 118.377 90.8509 119.277C91.7513 120.177 92.2571 121.398 92.2571 122.671C92.2571 123.944 91.7513 125.165 90.8509 126.065C89.9505 126.965 88.7293 127.47 87.4559 127.47C77.3011 127.47 77.3011 135.965 67.1463 135.965C56.9915 135.965 56.9915 127.47 46.8509 127.47C36.7102 127.47 36.6819 135.965 26.5271 135.965C16.3723 135.965 16.3723 127.47 6.21751 127.47" stroke="black" stroke-width="2" stroke-miterlimit="10"/>
<path d="M6.21751 136.517C4.94415 136.517 3.72294 136.011 2.82254 135.111C1.92213 134.211 1.41629 132.99 1.41629 131.718C1.41629 130.445 1.92213 129.224 2.82254 128.324C3.72294 127.424 4.94415 126.918 6.21751 126.918C16.3723 126.918 16.3723 135.413 26.5271 135.413C36.6819 135.413 36.6819 126.918 46.8509 126.918C57.0198 126.918 56.9915 135.413 67.1463 135.413C77.3011 135.413 77.3011 126.918 87.4559 126.918C88.7293 126.918 89.9505 127.424 90.8509 128.324C91.7513 129.224 92.2571 130.445 92.2571 131.718C92.2571 132.99 91.7513 134.211 90.8509 135.111C89.9505 136.011 88.7293 136.517 87.4559 136.517C77.3011 136.517 77.3011 145.011 67.1463 145.011C56.9915 145.011 56.9915 136.517 46.8509 136.517C36.7102 136.517 36.6819 145.011 26.5271 145.011C16.3723 145.011 16.3723 136.517 6.21751 136.517Z" fill="#482FF7"/>
<path d="M6.21751 136.517C4.94415 136.517 3.72294 136.011 2.82254 135.111C1.92213 134.211 1.41629 132.99 1.41629 131.718C1.41629 130.445 1.92213 129.224 2.82254 128.324C3.72294 127.424 4.94415 126.918 6.21751 126.918V126.918C16.3723 126.918 16.3723 135.413 26.5271 135.413C36.6819 135.413 36.6819 126.918 46.8509 126.918C57.0198 126.918 56.9915 135.413 67.1463 135.413C77.3011 135.413 77.3011 126.918 87.4559 126.918C88.7293 126.918 89.9505 127.424 90.8509 128.324C91.7513 129.224 92.2571 130.445 92.2571 131.718C92.2571 132.99 91.7513 134.211 90.8509 135.111C89.9505 136.011 88.7293 136.517 87.4559 136.517C77.3011 136.517 77.3011 145.011 67.1463 145.011C56.9915 145.011 56.9915 136.517 46.8509 136.517C36.7102 136.517 36.6819 145.011 26.5271 145.011C16.3723 145.011 16.3723 136.517 6.21751 136.517" stroke="black" stroke-width="2" stroke-miterlimit="10"/>
<path d="M6.21751 145.563C4.94415 145.563 3.72294 145.058 2.82254 144.158C1.92213 143.258 1.41629 142.037 1.41629 140.764C1.41629 139.491 1.92213 138.27 2.82254 137.37C3.72294 136.47 4.94415 135.965 6.21751 135.965C16.3723 135.965 16.3723 144.459 26.5271 144.459C36.6819 144.459 36.6819 135.965 46.8509 135.965C57.0198 135.965 56.9915 144.459 67.1463 144.459C77.3011 144.459 77.3011 135.965 87.4559 135.965C88.7293 135.965 89.9505 136.47 90.8509 137.37C91.7513 138.27 92.2571 139.491 92.2571 140.764C92.2571 142.037 91.7513 143.258 90.8509 144.158C89.9505 145.058 88.7293 145.563 87.4559 145.563C77.3011 145.563 77.3011 154.058 67.1463 154.058C56.9915 154.058 56.9915 145.563 46.8509 145.563C36.7102 145.563 36.6819 154.058 26.5271 154.058C16.3723 154.058 16.3723 145.563 6.21751 145.563Z" fill="#2D6CDF"/>
<path d="M6.21751 145.563C4.94415 145.563 3.72294 145.058 2.82254 144.158C1.92213 143.258 1.41629 142.037 1.41629 140.764C1.41629 139.491 1.92213 138.27 2.82254 137.37C3.72294 136.47 4.94415 135.965 6.21751 135.965V135.965C16.3723 135.965 16.3723 144.459 26.5271 144.459C36.6819 144.459 36.6819 135.965 46.8509 135.965C57.0198 135.965 56.9915 144.459 67.1463 144.459C77.3011 144.459 77.3011 135.965 87.4559 135.965C88.7293 135.965 89.9505 136.47 90.8509 137.37C91.7513 138.27 92.2571 139.491 92.2571 140.764C92.2571 142.037 91.7513 143.258 90.8509 144.158C89.9505 145.058 88.7293 145.563 87.4559 145.563C77.3011 145.563 77.3011 154.058 67.1463 154.058C56.9915 154.058 56.9915 145.563 46.8509 145.563C36.7102 145.563 36.6819 154.058 26.5271 154.058C16.3723 154.058 16.3723 145.563 6.21751 145.563" stroke="black" stroke-width="2" stroke-miterlimit="10"/>
<path d="M6.21751 154.61C4.94415 154.61 3.72294 154.104 2.82254 153.204C1.92213 152.304 1.41629 151.084 1.41629 149.811C1.41629 148.538 1.92213 147.317 2.82254 146.417C3.72294 145.517 4.94415 145.011 6.21751 145.011C16.3723 145.011 16.3723 153.506 26.5271 153.506C36.6819 153.506 36.6819 145.011 46.8509 145.011C57.0198 145.011 56.9915 153.506 67.1463 153.506C77.3011 153.506 77.3011 145.011 87.4559 145.011C88.7293 145.011 89.9505 145.517 90.8509 146.417C91.7513 147.317 92.2571 148.538 92.2571 149.811C92.2571 151.084 91.7513 152.304 90.8509 153.204C89.9505 154.104 88.7293 154.61 87.4559 154.61C77.3011 154.61 77.3011 163.104 67.1463 163.104C56.9915 163.104 56.9915 154.61 46.8509 154.61C36.7102 154.61 36.6819 163.104 26.5271 163.104C16.3723 163.104 16.3723 154.61 6.21751 154.61Z" fill="#46C3DB"/>
<path d="M6.21751 154.61C4.94415 154.61 3.72294 154.104 2.82254 153.204C1.92213 152.304 1.41629 151.084 1.41629 149.811C1.41629 148.538 1.92213 147.317 2.82254 146.417C3.72294 145.517 4.94415 145.011 6.21751 145.011V145.011C16.3723 145.011 16.3723 153.506 26.5271 153.506C36.6819 153.506 36.6819 145.011 46.8509 145.011C57.0198 145.011 56.9915 153.506 67.1463 153.506C77.3011 153.506 77.3011 145.011 87.4559 145.011C88.7293 145.011 89.9505 145.517 90.8509 146.417C91.7513 147.317 92.2571 148.538 92.2571 149.811C92.2571 151.084 91.7513 152.304 90.8509 153.204C89.9505 154.104 88.7293 154.61 87.4559 154.61C77.3011 154.61 77.3011 163.105 67.1463 163.105C56.9915 163.105 56.9915 154.61 46.8509 154.61C36.7102 154.61 36.6819 163.105 26.5271 163.105C16.3723 163.105 16.3723 154.61 6.21751 154.61" stroke="black" stroke-width="2" stroke-miterlimit="10"/>
<path d="M6.21751 163.657C4.94415 163.657 3.72294 163.151 2.82254 162.251C1.92213 161.351 1.41629 160.13 1.41629 158.857C1.41629 157.584 1.92213 156.364 2.82254 155.464C3.72294 154.564 4.94415 154.058 6.21751 154.058C16.3723 154.058 16.3723 162.552 26.5271 162.552C36.6819 162.552 36.6819 154.058 46.8509 154.058C57.0198 154.058 56.9915 162.552 67.1463 162.552C77.3011 162.552 77.3011 154.058 87.4559 154.058C88.7293 154.058 89.9505 154.564 90.8509 155.464C91.7513 156.364 92.2571 157.584 92.2571 158.857C92.2571 160.13 91.7513 161.351 90.8509 162.251C89.9505 163.151 88.7293 163.657 87.4559 163.657C77.3011 163.657 77.3011 172.151 67.1463 172.151C56.9915 172.151 56.9915 163.657 46.8509 163.657C36.7102 163.657 36.6819 172.151 26.5271 172.151C16.3723 172.151 16.3723 163.657 6.21751 163.657Z" fill="#482FF7"/>
<path d="M6.21751 163.657C4.94415 163.657 3.72294 163.151 2.82254 162.251C1.92213 161.351 1.41629 160.13 1.41629 158.857C1.41629 157.584 1.92213 156.364 2.82254 155.464C3.72294 154.564 4.94415 154.058 6.21751 154.058V154.058C16.3723 154.058 16.3723 162.552 26.5271 162.552C36.6819 162.552 36.6819 154.058 46.8509 154.058C57.0198 154.058 56.9915 162.552 67.1463 162.552C77.3011 162.552 77.3011 154.058 87.4559 154.058C88.7293 154.058 89.9505 154.564 90.8509 155.464C91.7513 156.364 92.2571 157.584 92.2571 158.857C92.2571 160.13 91.7513 161.351 90.8509 162.251C89.9505 163.151 88.7293 163.657 87.4559 163.657C77.3011 163.657 77.3011 172.151 67.1463 172.151C56.9915 172.151 56.9915 163.657 46.8509 163.657C36.7102 163.657 36.6819 172.151 26.5271 172.151C16.3723 172.151 16.3723 163.657 6.21751 163.657" stroke="black" stroke-width="2" stroke-miterlimit="10"/>
<path d="M6.21751 172.675C4.94415 172.675 3.72294 172.169 2.82254 171.269C1.92213 170.369 1.41629 169.148 1.41629 167.876C1.41629 166.603 1.92213 165.382 2.82254 164.482C3.72294 163.582 4.94415 163.076 6.21751 163.076C16.3723 163.076 16.3723 171.571 26.5271 171.571C36.6819 171.571 36.6819 163.076 46.8509 163.076C57.0198 163.076 56.9915 171.571 67.1463 171.571C77.3011 171.571 77.3011 163.076 87.4559 163.076C88.7293 163.076 89.9505 163.582 90.8509 164.482C91.7513 165.382 92.2571 166.603 92.2571 167.876C92.2571 169.148 91.7513 170.369 90.8509 171.269C89.9505 172.169 88.7293 172.675 87.4559 172.675C77.3011 172.675 77.3011 181.169 67.1463 181.169C56.9915 181.169 56.9915 172.675 46.8509 172.675C36.7102 172.675 36.6819 181.169 26.5271 181.169C16.3723 181.169 16.3723 172.675 6.21751 172.675Z" fill="#2D6CDF"/>
<path d="M6.21751 172.675C4.94415 172.675 3.72294 172.169 2.82254 171.269C1.92213 170.369 1.41629 169.148 1.41629 167.876C1.41629 166.603 1.92213 165.382 2.82254 164.482C3.72294 163.582 4.94415 163.076 6.21751 163.076V163.076C16.3723 163.076 16.3723 171.571 26.5271 171.571C36.6819 171.571 36.6819 163.076 46.8509 163.076C57.0198 163.076 56.9915 171.571 67.1463 171.571C77.3011 171.571 77.3011 163.076 87.4559 163.076C88.7293 163.076 89.9505 163.582 90.8509 164.482C91.7513 165.382 92.2571 166.603 92.2571 167.876C92.2571 169.148 91.7513 170.369 90.8509 171.269C89.9505 172.169 88.7293 172.675 87.4559 172.675C77.3011 172.675 77.3011 181.169 67.1463 181.169C56.9915 181.169 56.9915 172.675 46.8509 172.675C36.7102 172.675 36.6819 181.169 26.5271 181.169C16.3723 181.169 16.3723 172.675 6.21751 172.675" stroke="black" stroke-width="2" stroke-miterlimit="10"/>
<path d="M6.21751 181.764C4.9874 181.697 3.82966 181.162 2.9825 180.268C2.13534 179.374 1.66318 178.189 1.66318 176.957C1.66318 175.726 2.13534 174.541 2.9825 173.647C3.82966 172.753 4.9874 172.218 6.21751 172.151C16.3723 172.151 16.3723 180.645 26.5271 180.645C36.6819 180.645 36.6819 172.151 46.8509 172.151C57.0198 172.151 56.9915 180.645 67.1463 180.645C77.3011 180.645 77.3011 172.151 87.4559 172.151C88.686 172.218 89.8438 172.753 90.6909 173.647C91.5381 174.541 92.0102 175.726 92.0102 176.957C92.0102 178.189 91.5381 179.374 90.6909 180.268C89.8438 181.162 88.686 181.697 87.4559 181.764C77.3011 181.764 77.3011 190.258 67.1463 190.258C56.9915 190.258 56.9915 181.764 46.8509 181.764C36.7102 181.764 36.6819 190.258 26.5271 190.258C16.3723 190.258 16.3723 181.764 6.21751 181.764Z" fill="#46C3DB"/>
<path d="M6.21751 181.764C4.9874 181.697 3.82966 181.162 2.9825 180.268C2.13534 179.374 1.66318 178.189 1.66318 176.957C1.66318 175.726 2.13534 174.541 2.9825 173.647C3.82966 172.753 4.9874 172.218 6.21751 172.151V172.151C16.3723 172.151 16.3723 180.645 26.5271 180.645C36.6819 180.645 36.6819 172.151 46.8509 172.151C57.0198 172.151 56.9915 180.645 67.1463 180.645C77.3011 180.645 77.3011 172.151 87.4559 172.151C88.686 172.218 89.8438 172.753 90.6909 173.647C91.5381 174.541 92.0102 175.726 92.0102 176.957C92.0102 178.189 91.5381 179.374 90.6909 180.268C89.8438 181.162 88.686 181.697 87.4559 181.764C77.3011 181.764 77.3011 190.258 67.1463 190.258C56.9915 190.258 56.9915 181.764 46.8509 181.764C36.7102 181.764 36.6819 190.258 26.5271 190.258C16.3723 190.258 16.3723 181.764 6.21751 181.764" stroke="black" stroke-width="2" stroke-miterlimit="10"/>
<path d="M6.21751 190.811C4.9874 190.744 3.82966 190.208 2.9825 189.314C2.13534 188.42 1.66318 187.236 1.66318 186.004C1.66318 184.773 2.13534 183.588 2.9825 182.694C3.82966 181.8 4.9874 181.264 6.21751 181.198C16.3723 181.198 16.3723 189.692 26.5271 189.692C36.6819 189.692 36.6819 181.198 46.8509 181.198C57.0198 181.198 56.9915 189.692 67.1463 189.692C77.3011 189.692 77.3011 181.198 87.4559 181.198C88.686 181.264 89.8438 181.8 90.6909 182.694C91.5381 183.588 92.0102 184.773 92.0102 186.004C92.0102 187.236 91.5381 188.42 90.6909 189.314C89.8438 190.208 88.686 190.744 87.4559 190.811C77.3011 190.811 77.3011 199.305 67.1463 199.305C56.9915 199.305 56.9915 190.811 46.8509 190.811C36.7102 190.811 36.6819 199.305 26.5271 199.305C16.3723 199.305 16.3723 190.811 6.21751 190.811Z" fill="#482FF7"/>
<path d="M6.21751 190.811C4.9874 190.744 3.82966 190.208 2.9825 189.314C2.13534 188.42 1.66318 187.236 1.66318 186.004C1.66318 184.773 2.13534 183.588 2.9825 182.694C3.82966 181.8 4.9874 181.264 6.21751 181.198V181.198C16.3723 181.198 16.3723 189.692 26.5271 189.692C36.6819 189.692 36.6819 181.198 46.8509 181.198C57.0198 181.198 56.9915 189.692 67.1463 189.692C77.3011 189.692 77.3011 181.198 87.4559 181.198C88.686 181.264 89.8438 181.8 90.6909 182.694C91.5381 183.588 92.0102 184.773 92.0102 186.004C92.0102 187.236 91.5381 188.42 90.6909 189.314C89.8438 190.208 88.686 190.744 87.4559 190.811C77.3011 190.811 77.3011 199.305 67.1463 199.305C56.9915 199.305 56.9915 190.811 46.8509 190.811C36.7102 190.811 36.6819 199.305 26.5271 199.305C16.3723 199.305 16.3723 190.811 6.21751 190.811" stroke="black" stroke-width="2" stroke-miterlimit="10"/>
<path d="M6.21751 199.857C4.94415 199.857 3.72294 199.351 2.82254 198.451C1.92213 197.551 1.41629 196.331 1.41629 195.058C1.41629 193.785 1.92213 192.564 2.82254 191.664C3.72294 190.764 4.94415 190.258 6.21751 190.258C16.3723 190.258 16.3723 198.753 26.5271 198.753C36.6819 198.753 36.6819 190.258 46.8509 190.258C57.0198 190.258 56.9915 198.753 67.1463 198.753C77.3011 198.753 77.3011 190.258 87.4559 190.258C88.7293 190.258 89.9505 190.764 90.8509 191.664C91.7513 192.564 92.2571 193.785 92.2571 195.058C92.2571 196.331 91.7513 197.551 90.8509 198.451C89.9505 199.351 88.7293 199.857 87.4559 199.857C77.3011 199.857 77.3011 208.351 67.1463 208.351C56.9915 208.351 56.9915 199.857 46.8509 199.857C36.7102 199.857 36.6819 208.351 26.5271 208.351C16.3723 208.351 16.3723 199.857 6.21751 199.857Z" fill="#2D6CDF"/>
<path d="M6.21751 199.857C4.94415 199.857 3.72294 199.351 2.82254 198.451C1.92213 197.551 1.41629 196.331 1.41629 195.058C1.41629 193.785 1.92213 192.564 2.82254 191.664C3.72294 190.764 4.94415 190.258 6.21751 190.258V190.258C16.3723 190.258 16.3723 198.753 26.5271 198.753C36.6819 198.753 36.6819 190.258 46.8509 190.258C57.0198 190.258 56.9915 198.753 67.1463 198.753C77.3011 198.753 77.3011 190.258 87.4559 190.258C88.7293 190.258 89.9505 190.764 90.8509 191.664C91.7513 192.564 92.2571 193.785 92.2571 195.058C92.2571 196.331 91.7513 197.551 90.8509 198.451C89.9505 199.351 88.7293 199.857 87.4559 199.857C77.3011 199.857 77.3011 208.351 67.1463 208.351C56.9915 208.351 56.9915 199.857 46.8509 199.857C36.7102 199.857 36.6819 208.351 26.5271 208.351C16.3723 208.351 16.3723 199.857 6.21751 199.857" stroke="black" stroke-width="2" stroke-miterlimit="10"/>
<path d="M6.21751 208.904C4.94415 208.904 3.72294 208.398 2.82254 207.498C1.92213 206.598 1.41629 205.377 1.41629 204.104C1.41629 202.831 1.92213 201.611 2.82254 200.711C3.72294 199.811 4.94415 199.305 6.21751 199.305C16.3723 199.305 16.3723 207.799 26.5271 207.799C36.6819 207.799 36.6819 199.305 46.8509 199.305C57.0198 199.305 56.9915 207.799 67.1463 207.799C77.3011 207.799 77.3011 199.305 87.4559 199.305C88.7293 199.305 89.9505 199.811 90.8509 200.711C91.7513 201.611 92.2571 202.831 92.2571 204.104C92.2571 205.377 91.7513 206.598 90.8509 207.498C89.9505 208.398 88.7293 208.904 87.4559 208.904C77.3011 208.904 77.3011 217.398 67.1463 217.398C56.9915 217.398 56.9915 208.904 46.8509 208.904C36.7102 208.904 36.6819 217.398 26.5271 217.398C16.3723 217.398 16.3723 208.904 6.21751 208.904Z" fill="#46C3DB"/>
<path d="M6.21751 208.904C4.94415 208.904 3.72294 208.398 2.82254 207.498C1.92213 206.598 1.41629 205.377 1.41629 204.104C1.41629 202.831 1.92213 201.611 2.82254 200.711C3.72294 199.811 4.94415 199.305 6.21751 199.305V199.305C16.3723 199.305 16.3723 207.799 26.5271 207.799C36.6819 207.799 36.6819 199.305 46.8509 199.305C57.0198 199.305 56.9915 207.799 67.1463 207.799C77.3011 207.799 77.3011 199.305 87.4559 199.305C88.7293 199.305 89.9505 199.811 90.8509 200.711C91.7513 201.611 92.2571 202.831 92.2571 204.104C92.2571 205.377 91.7513 206.598 90.8509 207.498C89.9505 208.398 88.7293 208.904 87.4559 208.904C77.3011 208.904 77.3011 217.398 67.1463 217.398C56.9915 217.398 56.9915 208.904 46.8509 208.904C36.7102 208.904 36.6819 217.398 26.5271 217.398C16.3723 217.398 16.3723 208.904 6.21751 208.904" stroke="black" stroke-width="2" stroke-miterlimit="10"/>
<path d="M6.21751 217.978C4.94415 217.978 3.72294 217.473 2.82254 216.573C1.92213 215.673 1.41629 214.452 1.41629 213.179C1.41629 211.906 1.92213 210.686 2.82254 209.785C3.72294 208.885 4.94415 208.38 6.21751 208.38C16.3723 208.38 16.3723 216.874 26.5271 216.874C36.6819 216.874 36.6819 208.38 46.8509 208.38C57.0198 208.38 56.9915 216.874 67.1463 216.874C77.3011 216.874 77.3011 208.38 87.4559 208.38C88.7293 208.38 89.9505 208.885 90.8509 209.785C91.7513 210.686 92.2571 211.906 92.2571 213.179C92.2571 214.452 91.7513 215.673 90.8509 216.573C89.9505 217.473 88.7293 217.978 87.4559 217.978C77.3011 217.978 77.3011 226.473 67.1463 226.473C56.9915 226.473 56.9915 217.978 46.8509 217.978C36.7102 217.978 36.6819 226.473 26.5271 226.473C16.3723 226.473 16.3723 217.978 6.21751 217.978Z" fill="#482FF7"/>
<path d="M6.21751 217.978C4.94415 217.978 3.72294 217.473 2.82254 216.573C1.92213 215.673 1.41629 214.452 1.41629 213.179C1.41629 211.906 1.92213 210.686 2.82254 209.785C3.72294 208.885 4.94415 208.38 6.21751 208.38V208.38C16.3723 208.38 16.3723 216.874 26.5271 216.874C36.6819 216.874 36.6819 208.38 46.8509 208.38C57.0198 208.38 56.9915 216.874 67.1463 216.874C77.3011 216.874 77.3011 208.38 87.4559 208.38C88.7293 208.38 89.9505 208.885 90.8509 209.785C91.7513 210.686 92.2571 211.906 92.2571 213.179C92.2571 214.452 91.7513 215.673 90.8509 216.573C89.9505 217.473 88.7293 217.978 87.4559 217.978C77.3011 217.978 77.3011 226.473 67.1463 226.473C56.9915 226.473 56.9915 217.978 46.8509 217.978C36.7102 217.978 36.6819 226.473 26.5271 226.473C16.3723 226.473 16.3723 217.978 6.21751 217.978" stroke="black" stroke-width="2" stroke-miterlimit="10"/>
<path d="M6.21751 226.997C4.94415 226.997 3.72294 226.491 2.82254 225.591C1.92213 224.691 1.41629 223.47 1.41629 222.197C1.41629 220.924 1.92213 219.704 2.82254 218.804C3.72294 217.904 4.94415 217.398 6.21751 217.398C16.3723 217.398 16.3723 225.892 26.5271 225.892C36.6819 225.892 36.6819 217.398 46.8509 217.398C57.0198 217.398 56.9915 225.892 67.1463 225.892C77.3011 225.892 77.3011 217.398 87.4559 217.398C88.7293 217.398 89.9505 217.904 90.8509 218.804C91.7513 219.704 92.2571 220.924 92.2571 222.197C92.2571 223.47 91.7513 224.691 90.8509 225.591C89.9505 226.491 88.7293 226.997 87.4559 226.997C77.3011 226.997 77.3011 235.491 67.1463 235.491C56.9915 235.491 56.9915 226.997 46.8509 226.997C36.7102 226.997 36.6819 235.491 26.5271 235.491C16.3723 235.491 16.3723 226.997 6.21751 226.997Z" fill="#2D6CDF"/>
<path d="M6.21751 226.997C4.94415 226.997 3.72294 226.491 2.82254 225.591C1.92213 224.691 1.41629 223.47 1.41629 222.197C1.41629 220.924 1.92213 219.704 2.82254 218.804C3.72294 217.904 4.94415 217.398 6.21751 217.398V217.398C16.3723 217.398 16.3723 225.892 26.5271 225.892C36.6819 225.892 36.6819 217.398 46.8509 217.398C57.0198 217.398 56.9915 225.892 67.1463 225.892C77.3011 225.892 77.3011 217.398 87.4559 217.398C88.7293 217.398 89.9505 217.904 90.8509 218.804C91.7513 219.704 92.2571 220.924 92.2571 222.197C92.2571 223.47 91.7513 224.691 90.8509 225.591C89.9505 226.491 88.7293 226.997 87.4559 226.997C77.3011 226.997 77.3011 235.491 67.1463 235.491C56.9915 235.491 56.9915 226.997 46.8509 226.997C36.7102 226.997 36.6819 235.491 26.5271 235.491C16.3723 235.491 16.3723 226.997 6.21751 226.997" stroke="black" stroke-width="2" stroke-miterlimit="10"/>
<path d="M6.21751 236.043C4.94415 236.043 3.72294 235.538 2.82254 234.638C1.92213 233.738 1.41629 232.517 1.41629 231.244C1.41629 229.971 1.92213 228.75 2.82254 227.85C3.72294 226.95 4.94415 226.445 6.21751 226.445C16.3723 226.445 16.3723 234.939 26.5271 234.939C36.6819 234.939 36.6819 226.445 46.8509 226.445C57.0198 226.445 56.9915 234.939 67.1463 234.939C77.3011 234.939 77.3011 226.445 87.4559 226.445C88.7293 226.445 89.9505 226.95 90.8509 227.85C91.7513 228.75 92.2571 229.971 92.2571 231.244C92.2571 232.517 91.7513 233.738 90.8509 234.638C89.9505 235.538 88.7293 236.043 87.4559 236.043C77.3011 236.043 77.3011 244.538 67.1463 244.538C56.9915 244.538 56.9915 236.043 46.8509 236.043C36.7102 236.043 36.6819 244.538 26.5271 244.538C16.3723 244.538 16.3723 236.043 6.21751 236.043Z" fill="#46C3DB"/>
<path d="M6.21751 236.043C4.94415 236.043 3.72294 235.538 2.82254 234.638C1.92213 233.738 1.41629 232.517 1.41629 231.244C1.41629 229.971 1.92213 228.75 2.82254 227.85C3.72294 226.95 4.94415 226.445 6.21751 226.445V226.445C16.3723 226.445 16.3723 234.939 26.5271 234.939C36.6819 234.939 36.6819 226.445 46.8509 226.445C57.0198 226.445 56.9915 234.939 67.1463 234.939C77.3011 234.939 77.3011 226.445 87.4559 226.445C88.7293 226.445 89.9505 226.95 90.8509 227.85C91.7513 228.75 92.2571 229.971 92.2571 231.244C92.2571 232.517 91.7513 233.738 90.8509 234.638C89.9505 235.538 88.7293 236.043 87.4559 236.043C77.3011 236.043 77.3011 244.538 67.1463 244.538C56.9915 244.538 56.9915 236.043 46.8509 236.043C36.7102 236.043 36.6819 244.538 26.5271 244.538C16.3723 244.538 16.3723 236.043 6.21751 236.043" stroke="black" stroke-width="2" stroke-miterlimit="10"/>
<path d="M6.21751 245.09C4.94415 245.09 3.72294 244.584 2.82254 243.684C1.92213 242.784 1.41629 241.563 1.41629 240.291C1.41629 239.018 1.92213 237.797 2.82254 236.897C3.72294 235.997 4.94415 235.491 6.21751 235.491C16.3723 235.491 16.3723 243.986 26.5271 243.986C36.6819 243.986 36.6819 235.491 46.8509 235.491C57.0198 235.491 56.9915 243.986 67.1463 243.986C77.3011 243.986 77.3011 235.491 87.4559 235.491C88.7293 235.491 89.9505 235.997 90.8509 236.897C91.7513 237.797 92.2571 239.018 92.2571 240.291C92.2571 241.563 91.7513 242.784 90.8509 243.684C89.9505 244.584 88.7293 245.09 87.4559 245.09C77.3011 245.09 77.3011 253.584 67.1463 253.584C56.9915 253.584 56.9915 245.09 46.8509 245.09C36.7102 245.09 36.6819 253.584 26.5271 253.584C16.3723 253.584 16.3723 245.09 6.21751 245.09Z" fill="#482FF7"/>
<path d="M6.21751 245.09C4.94415 245.09 3.72294 244.584 2.82254 243.684C1.92213 242.784 1.41629 241.563 1.41629 240.291C1.41629 239.018 1.92213 237.797 2.82254 236.897C3.72294 235.997 4.94415 235.491 6.21751 235.491V235.491C16.3723 235.491 16.3723 243.986 26.5271 243.986C36.6819 243.986 36.6819 235.491 46.8509 235.491C57.0198 235.491 56.9915 243.986 67.1463 243.986C77.3011 243.986 77.3011 235.491 87.4559 235.491C88.7293 235.491 89.9505 235.997 90.8509 236.897C91.7513 237.797 92.2571 239.018 92.2571 240.291C92.2571 241.563 91.7513 242.784 90.8509 243.684C89.9505 244.584 88.7293 245.09 87.4559 245.09C77.3011 245.09 77.3011 253.584 67.1463 253.584C56.9915 253.584 56.9915 245.09 46.8509 245.09C36.7102 245.09 36.6819 253.584 26.5271 253.584C16.3723 253.584 16.3723 245.09 6.21751 245.09" stroke="black" stroke-width="2" stroke-miterlimit="10"/>
<path d="M128.5 82.7755V103.219" stroke="black" stroke-width="2" stroke-miterlimit="10"/>
<path d="M123.996 93.3936H133.004C135.889 93.3936 138.655 94.5391 140.695 96.5781C142.735 98.6172 143.881 101.383 143.881 104.266V108.768H113.119V104.323C113.112 102.89 113.387 101.47 113.931 100.145C114.474 98.8191 115.274 97.6138 116.285 96.5981C117.296 95.5825 118.497 94.7765 119.821 94.2266C121.144 93.6766 122.563 93.3935 123.996 93.3936Z" fill="#5789E5" stroke="black" stroke-width="2" stroke-miterlimit="10"/>
<path d="M113.119 126.437C113.119 125.28 112.181 124.342 111.023 124.342C109.865 124.342 108.927 125.28 108.927 126.437V131.066C108.927 132.224 109.865 133.162 111.023 133.162C112.181 133.162 113.119 132.224 113.119 131.066V126.437Z" fill="#5789E5"/>
<path d="M124.237 119.967C124.237 118.81 123.299 117.872 122.141 117.872C120.983 117.872 120.045 118.81 120.045 119.967V124.596C120.045 125.754 120.983 126.692 122.141 126.692C123.299 126.692 124.237 125.754 124.237 124.596V119.967Z" fill="#5789E5"/>
<path d="M135.157 132.539C135.157 131.381 134.218 130.443 133.06 130.443C131.903 130.443 130.964 131.381 130.964 132.539V137.168C130.964 138.325 131.903 139.263 133.06 139.263C134.218 139.263 135.157 138.325 135.157 137.168V132.539Z" fill="#5789E5"/>
<path d="M132.692 149.853C132.692 148.696 131.754 147.758 130.596 147.758C129.438 147.758 128.5 148.696 128.5 149.853V154.483C128.5 155.64 129.438 156.578 130.596 156.578C131.754 156.578 132.692 155.64 132.692 154.483V149.853Z" fill="#5789E5"/>
<path d="M121.603 155.587C121.603 154.43 120.664 153.492 119.507 153.492C118.349 153.492 117.41 154.43 117.41 155.587V166.148C117.41 167.305 118.349 168.244 119.507 168.244C120.664 168.244 121.603 167.305 121.603 166.148V155.587Z" fill="#5789E5"/>
<path d="M145.566 172.802C145.566 171.645 144.628 170.707 143.47 170.707C142.313 170.707 141.374 171.645 141.374 172.802V183.364C141.374 184.521 142.313 185.459 143.47 185.459C144.628 185.459 145.566 184.521 145.566 183.364V172.802Z" fill="#5789E5"/>
<path d="M129.463 164.025H128.897C127.895 164.025 127.084 164.836 127.084 165.837V178.125C127.084 179.126 127.895 179.938 128.897 179.938H129.463C130.464 179.938 131.276 179.126 131.276 178.125V165.837C131.276 164.836 130.464 164.025 129.463 164.025Z" fill="#5789E5"/>
<path d="M118.898 180.136C118.898 178.979 117.959 178.041 116.801 178.041C115.644 178.041 114.705 178.979 114.705 180.136V184.709C114.705 185.866 115.644 186.804 116.801 186.804C117.959 186.804 118.898 185.866 118.898 184.709V180.136Z" fill="#5789E5"/>
<path d="M112.043 163.02H110.825C110.003 163.02 109.338 163.685 109.338 164.506V172.25C109.338 173.071 110.003 173.737 110.825 173.737H112.043C112.864 173.737 113.53 173.071 113.53 172.25V164.506C113.53 163.685 112.864 163.02 112.043 163.02Z" fill="#5789E5"/>
<path d="M113.119 145.776C113.119 144.619 112.181 143.681 111.023 143.681C109.865 143.681 108.927 144.619 108.927 145.776V150.405C108.927 151.562 109.865 152.501 111.023 152.501C112.181 152.501 113.119 151.562 113.119 150.405V145.776Z" fill="#5789E5"/>
<path d="M142.238 120.264C142.238 119.107 141.3 118.169 140.142 118.169C138.984 118.169 138.046 119.107 138.046 120.264V124.894C138.046 126.051 138.984 126.989 140.142 126.989C141.3 126.989 142.238 126.051 142.238 124.894V120.264Z" fill="#5789E5"/>
<path d="M147.662 144.049C147.662 142.891 146.724 141.953 145.566 141.953C144.409 141.953 143.47 142.891 143.47 144.049V148.678C143.47 149.835 144.409 150.773 145.566 150.773C146.724 150.773 147.662 149.835 147.662 148.678V144.049Z" fill="#5789E5"/>
<path d="M149.759 131.703C149.759 130.546 148.82 129.608 147.662 129.608C146.505 129.608 145.566 130.546 145.566 131.703V133.204C145.566 134.361 146.505 135.299 147.662 135.299C148.82 135.299 149.759 134.361 149.759 133.204V131.703Z" fill="#5789E5"/>
<path d="M140.949 161.476C140.949 160.319 140.011 159.381 138.853 159.381C137.695 159.381 136.757 160.319 136.757 161.476V162.977C136.757 164.134 137.695 165.072 138.853 165.072C140.011 165.072 140.949 164.134 140.949 162.977V161.476Z" fill="#5789E5"/>
<path d="M123.175 136.956C123.175 135.799 122.236 134.86 121.079 134.86C119.921 134.86 118.983 135.799 118.983 136.956V141.585C118.983 142.742 119.921 143.681 121.079 143.681C122.236 143.681 123.175 142.742 123.175 141.585V136.956Z" fill="#5789E5"/>
</svg>
