<svg width="66" height="40" viewBox="0 0 66 40" fill="none" xmlns="http://www.w3.org/2000/svg">
<path d="M59.3351 13.1153C60.9861 13.1153 62.2896 14.4188 62.2896 16.0699V16.5044C62.2896 18.1554 60.9861 19.4589 59.3351 19.4589H60.8993C62.7241 19.4589 64.2883 20.9362 64.2014 22.761C64.2014 23.5431 63.8538 24.3252 63.3324 24.8466C62.811 25.4549 62.0289 25.8025 61.1599 25.8025H59.2482C60.9862 25.8025 62.3765 27.1928 62.3765 28.9308C62.3765 29.7998 62.0289 30.5819 61.5075 31.1033C60.9861 31.7116 60.2041 32.0591 59.3351 32.0591H57.1626C58.9006 32.0591 60.291 33.4495 60.291 35.1875C60.291 36.0565 59.9434 36.8386 59.3351 37.3599C58.8137 37.9682 58.0316 38.3158 57.1626 38.3158H48.4728C48.4728 38.3158 42.0423 38.3158 33.5263 38.3158C25.0103 38.3158 23.9675 30.1474 17.6239 30.1474L-31.4736 29.9736V17.634H17.4501C20.8391 17.634 24.7496 16.4175 27.2696 15.4616C28.66 14.9402 30.1373 14.5926 31.5276 14.245C33.0918 13.8974 35.1774 12.507 37.0022 6.94554C39.6092 -0.962202 43.172 1.38405 44.7362 3.12202C45.9527 4.42549 44.041 9.2918 42.9982 11.7249C42.7375 12.4201 43.172 13.2022 43.9541 13.2022L59.3351 13.1153Z" fill="#EFC2A1"/>
<path d="M52.5571 25.6284H59.0745C60.8124 25.6284 62.2028 27.0188 62.2028 28.7568C62.2028 29.6257 61.8552 30.4078 61.3338 30.9292C60.8124 31.5375 60.0303 31.8851 59.1614 31.8851H56.9889H50.2977" stroke="black" stroke-width="2" stroke-miterlimit="10"/>
<path d="M52.2095 19.3718H59.3351H61.0731C62.8111 19.3718 64.2014 20.7622 64.2014 22.5002C64.2014 23.3691 63.8538 24.1512 63.2456 24.6726C62.7242 25.2809 61.9421 25.6285 61.0731 25.6285H59.1613H52.644" stroke="black" stroke-width="2" stroke-miterlimit="10"/>
<path d="M50.2108 31.8854H56.7282C58.553 31.8854 60.1172 33.3626 60.0303 35.1875C60.0303 35.9696 59.6827 36.6648 59.1613 37.273C58.6399 37.8813 57.8578 38.2289 56.9888 38.2289H48.299C48.299 38.2289 41.8685 38.2289 33.3525 38.2289C24.8365 38.2289 23.7937 30.0605 17.4501 30.0605L-31.4736 29.9736V17.634H17.4501C20.8391 17.634 24.7496 16.4175 27.2696 15.4616C28.66 14.9402 30.1373 14.5926 31.5276 14.245C33.0918 13.8974 35.1774 12.507 37.0022 6.94554C39.6092 -0.962202 43.172 1.38405 44.7362 3.12202C45.8659 4.33859 44.2148 8.85731 43.172 11.3774C42.8244 12.2463 43.4327 13.2022 44.3886 13.2022H59.3351C60.9862 13.2022 62.2896 14.5057 62.2896 16.1568V16.5913C62.2896 18.2423 60.9862 19.5458 59.3351 19.5458H52.2094" stroke="black" stroke-width="2" stroke-miterlimit="10"/>
</svg>
