<svg width="753" height="70" viewBox="0 0 753 70" fill="none" xmlns="http://www.w3.org/2000/svg">
<path d="M103.852 14.5454C83.9896 15.2727 44.1041 37.0706 26.6441 47.8787L0 70H753C693.051 70 666.406 14.5454 618.568 14.5454C570.73 14.5454 568.913 60.909 538.333 60.909C507.753 60.909 492.311 23.0303 466.575 23.0303C440.84 23.0303 439.023 41.5152 409.654 41.5152C380.285 41.5152 388.46 0 362.724 0C336.988 0 323.969 60.909 304.591 60.909C285.214 60.909 264.928 47.8787 243.733 47.8787C222.539 47.8787 221.631 60.909 188.628 60.909C155.626 60.909 128.679 13.6363 103.852 14.5454Z" fill="#F4D76E"/>
</svg>
